<svg width="18231" height="12244" viewBox="0 0 18231 12244" fill="none" xmlns="http://www.w3.org/2000/svg">
<rect width="18231" height="12244" fill="white"/>
<path d="M0 0H18231V4336C18231 5873.56 16984.6 7120 15447 7120H2487C1113.47 7120 0 6006.53 0 4633V0Z" fill="#EDF7D0"/>
<circle cx="15155" cy="1366" r="995" fill="#D7FBE8"/>
<circle cx="3402" cy="6957" r="995" fill="#D7FBE8"/>
<circle cx="15499" cy="5514" r="1029" fill="#D7FBE8"/>
<circle cx="1688" cy="10826" r="1029" fill="#D7FBE8"/>
<ellipse cx="14470" cy="10230.5" rx="963" ry="996.5" fill="#D7FBE8"/>
<circle cx="2163.5" cy="1826.5" r="1455.5" fill="#D7FBE8"/>
<g clip-path="url(#clip0)">
<path d="M2443.2 2777.21L3186.45 2636.76C3257.84 2623.27 3304.78 2554.46 3291.29 2483.07L3126.42 1610.56L2124.65 1799.86L2289.52 2672.37C2303.01 2743.76 2371.82 2790.7 2443.2 2777.21Z" fill="#F0BC5E"/>
<path d="M1564.86 1671.36L1241.71 1732.42L1363.83 2378.72L1686.99 2317.66L1564.86 1671.36Z" fill="#F0BC5E"/>
<path d="M3135.82 2545.92L3200.45 2533.71L3017.26 1564.25L2952.63 1576.47L2983.16 1738.04L2853.9 1762.47L2866.11 1827.1L2995.37 1802.67L3013.69 1899.62L2949.06 1911.83L2961.28 1976.46L3025.91 1964.25L3044.23 2061.19L2914.96 2085.62L2927.18 2150.25L3056.44 2125.82L3074.76 2222.77L3010.13 2234.98L3022.34 2299.61L3086.97 2287.4L3105.29 2384.35L2976.03 2408.77L2988.24 2473.4L3117.5 2448.98L3135.82 2545.92Z" fill="black"/>
<path d="M2994.86 796.219C2999.1 780.055 2999.7 762.84 2996.53 746.068C2984.96 684.831 2925.71 644.417 2864.48 655.989C2821.17 664.171 2786.36 697.09 2775.76 739.825L2584.31 1512.19L1894.12 1642.61L1922 1790.16L2101.89 1856.57L2257.2 2678.48C2274.04 2767.57 2360.22 2826.36 2449.31 2809.52L3192.56 2669.08C3281.65 2652.24 3340.44 2566.06 3323.61 2476.97L3122.1 1410.57L2817.82 1468.06L2994.86 796.219ZM2839.63 755.668C2844.06 737.797 2858.59 724.039 2876.69 720.619C2902.28 715.783 2927.06 732.687 2931.97 758.669C2933.27 765.52 2933.03 772.761 2931.22 779.495L2746.2 1481.6L2655.4 1498.75L2839.63 755.668ZM3258.98 2489.18C3269.08 2542.63 3233.8 2594.35 3180.35 2604.45L2437.1 2744.89C2383.65 2754.99 2331.93 2719.72 2321.83 2666.27L2159.61 1807.78L1979.72 1741.37L1970.96 1695.03L3069.68 1487.41L3258.98 2489.18Z" fill="black"/>
<path d="M2295.9 1466.28C2349.35 1456.18 2384.62 1404.46 2374.52 1351.01C2364.42 1297.57 2312.71 1262.29 2259.26 1272.39C2205.81 1282.49 2170.53 1334.2 2180.63 1387.65C2190.73 1441.1 2242.45 1476.38 2295.9 1466.28ZM2271.47 1337.02C2289.31 1333.65 2306.52 1345.39 2309.89 1363.23C2313.26 1381.07 2301.52 1398.28 2283.68 1401.65C2265.85 1405.02 2248.63 1393.28 2245.26 1375.44C2241.89 1357.6 2253.63 1340.39 2271.47 1337.02Z" fill="black"/>
<path d="M2422.62 1074.17C2493.9 1060.7 2540.92 991.775 2527.45 920.488C2513.98 849.201 2445.05 802.182 2373.77 815.653C2302.48 829.123 2255.46 898.052 2268.93 969.339C2282.4 1040.63 2351.33 1087.65 2422.62 1074.17ZM2385.98 880.283C2421.62 873.548 2456.09 897.057 2462.82 932.701C2469.56 968.344 2446.05 1002.81 2410.4 1009.54C2374.76 1016.28 2340.3 992.77 2333.56 957.126C2326.83 921.483 2350.34 887.018 2385.98 880.283Z" fill="black"/>
<path d="M1965.88 959.666C1952.41 888.378 1883.48 841.36 1812.2 854.83C1740.91 868.301 1693.89 937.229 1707.36 1008.52C1720.83 1079.8 1789.76 1126.82 1861.05 1113.35C1932.33 1099.88 1979.35 1030.95 1965.88 959.666ZM1771.99 996.304C1765.26 960.66 1788.77 926.196 1824.41 919.461C1860.05 912.726 1894.52 936.235 1901.25 971.879C1907.99 1007.52 1884.48 1041.99 1848.83 1048.72C1813.19 1055.46 1778.73 1031.95 1771.99 996.304Z" fill="black"/>
<path d="M984.213 1078.23L1145.79 1047.69L1206.85 1370.85L1045.28 1401.38L1081.91 1595.27L1178.86 1576.95L1337.63 2417.15L1434.57 2398.83L1459 2528.09L1523.63 2515.88L1609.12 2968.29L1673.75 2956.08L1588.26 2503.66L1652.89 2491.45L1628.46 2362.19L1725.41 2343.87L1566.64 1503.67L1663.59 1485.36L1626.95 1291.46L1465.37 1322L1404.31 998.843L1565.89 968.312L1553.67 903.681L972 1013.6L984.213 1078.23ZM1576.05 2439.03L1511.41 2451.24L1499.2 2386.61L1563.83 2374.4L1576.05 2439.03ZM1520.33 1612.83L1391.07 1637.26L1403.28 1701.89L1532.54 1677.46L1550.86 1774.41L1486.23 1786.62L1498.45 1851.25L1563.08 1839.04L1581.4 1935.98L1452.13 1960.41L1464.35 2025.04L1593.61 2000.62L1611.93 2097.56L1547.3 2109.77L1559.51 2174.4L1624.14 2162.19L1648.57 2291.45L1390.04 2340.3L1243.49 1564.74L1502.01 1515.89L1520.33 1612.83ZM1586.75 1432.94L1134.33 1518.43L1122.12 1453.8L1574.53 1368.31L1586.75 1432.94ZM1400.74 1334.21L1271.48 1358.63L1210.42 1035.48L1339.68 1011.06L1400.74 1334.21Z" fill="black"/>
<path d="M2457.2 2674.15L2521.83 2661.94L2509.62 2597.31L2444.99 2609.52L2347.29 2092.48L2282.66 2104.69L2380.36 2621.74C2387.09 2657.38 2421.56 2680.89 2457.2 2674.15Z" fill="black"/>
<path d="M2638.88 2572.89L2574.25 2585.1L2586.46 2649.73L2651.09 2637.52L2638.88 2572.89Z" fill="black"/>
</g>
<path d="M16391.9 5466.18L15208 4815.54L14798.4 5560.93L15982.2 6211.57L16391.9 5466.18Z" fill="#F0BC5E"/>
<path d="M16418.2 5366.43L16133.2 5209.8L16109.1 5253.64L16394.1 5410.28C16430.3 5430.21 16443.6 5475.94 16423.7 5512.2L16026.1 6235.67L14754.5 5536.83L15152.1 4813.36C15172.1 4777.1 15217.8 4763.81 15254.1 4783.74L15539.1 4940.37L15563.2 4896.53L15278.2 4739.89C15217.7 4706.67 15141.5 4728.82 15108.3 4789.26L14710.7 5512.73L14698.6 5534.66L14674.5 5578.5C14641.3 5638.95 14663.5 5715.15 14723.9 5748.36L14987 5892.95L14938.8 5980.64L14851.1 5932.45L14827 5976.29L15616.2 6410.05L15640.3 6366.21L15552.6 6318.01L15600.8 6230.32L15863.9 6374.91C15924.4 6408.12 16000.6 6385.98 16033.8 6325.53L16057.9 6281.69L16069.9 6259.76L16467.5 5536.29C16500.8 5475.85 16478.6 5399.65 16418.2 5366.43ZM15508.8 6293.91L14982.6 6004.74L15030.8 5917.05L15557 6206.22L15508.8 6293.91ZM15989.9 6301.44C15970 6337.7 15924.3 6350.99 15888 6331.06L14748 5704.52C14711.7 5684.59 14698.5 5638.86 14718.4 5602.6L14730.4 5580.68L16002 6279.51L15989.9 6301.44Z" fill="black"/>
<path d="M15545.6 4772.69C15559 4780.08 15573.8 4782.86 15588.1 4781.63L15633.1 4881.02C15627.7 4886.15 15622.8 4891.88 15619.1 4898.7C15603.4 4927.24 15608.5 4961.47 15629 4984.53L15588.4 5058.39C15557.9 5053.48 15526.3 5067.49 15510.6 5096.03C15506.9 5102.85 15504.6 5110.05 15503.2 5117.31L15395.2 5132.62C15388.6 5119.91 15378.3 5108.93 15364.9 5101.54C15328.6 5081.61 15282.9 5094.9 15262.9 5131.16C15247.2 5159.7 15252.4 5193.93 15272.9 5216.99L15232.3 5290.85C15201.8 5285.94 15170.2 5299.95 15154.5 5328.49C15134.6 5364.75 15147.8 5410.48 15184.1 5430.41C15199.5 5438.89 15216.6 5441.03 15232.8 5438.28L15279.1 5521.17C15275.6 5525.18 15272.3 5529.59 15269.6 5534.48C15249.7 5570.74 15263 5616.46 15299.3 5636.39C15335.5 5656.32 15381.2 5643.03 15401.2 5606.77C15404.2 5601.22 15406.3 5595.4 15407.8 5589.53L15500.3 5581.61C15506.1 5598.68 15517.9 5613.81 15534.9 5623.17C15551.9 5632.53 15571 5634.32 15588.5 5630.09L15631.4 5712.45C15627.3 5716.88 15623.5 5721.71 15620.4 5727.26C15600.5 5763.52 15613.8 5809.25 15650 5829.18C15686.3 5849.1 15732 5835.81 15752 5799.55C15754.6 5794.66 15756.6 5789.56 15758.1 5784.42L15852.9 5779.1C15859.3 5794.19 15870.2 5807.47 15885.7 5815.95C15921.9 5835.88 15967.7 5822.59 15987.6 5786.33C16003.3 5757.78 15998.1 5723.56 15977.7 5700.49L16018.3 5626.63C16048.7 5631.55 16080.3 5617.54 16096 5588.99C16116 5552.73 16102.7 5507.01 16066.4 5487.08C16052.9 5479.68 16038.2 5476.9 16023.9 5478.14L15978.9 5378.75C15984.3 5373.64 15989.2 5367.9 15992.9 5361.09C16008.6 5332.54 16003.5 5298.32 15983 5275.25L16023.6 5201.39C16054 5206.3 16085.7 5192.3 16101.4 5163.75C16105.1 5156.94 16107.3 5149.73 16108.8 5142.49L16216.8 5127.18C16223.4 5139.87 16233.7 5150.85 16247.1 5158.25C16283.4 5178.18 16329.1 5164.89 16349 5128.63C16369 5092.37 16355.7 5046.64 16319.4 5026.71C16283.2 5006.78 16237.4 5020.07 16217.5 5056.33C16213.8 5063.15 16211.5 5070.35 16210.1 5077.6L16102.1 5092.91C16095.5 5080.24 16085.2 5069.26 16071.7 5061.86C16058.3 5054.46 16043.5 5051.68 16029.2 5052.92L15984.3 4953.51C15989.6 4948.4 15994.5 4942.66 15998.3 4935.85C16018.2 4899.58 16004.9 4853.86 15968.7 4833.93C15932.4 4814 15886.7 4827.29 15866.7 4863.55C15863 4870.37 15860.8 4877.55 15859.3 4884.82L15751.3 4900.15C15744.7 4887.46 15734.4 4876.48 15721 4869.08C15707.5 4861.68 15692.7 4858.9 15678.5 4860.13L15633.5 4760.74C15638.9 4755.61 15643.8 4749.88 15647.5 4743.06C15667.4 4706.8 15654.1 4661.08 15617.9 4641.15C15581.6 4621.22 15535.9 4634.51 15516 4670.77C15496 4707.03 15509.3 4752.76 15545.6 4772.69ZM15750.6 4970.99C15754.3 4964.18 15756.5 4957 15758 4949.73L15866.1 4934.4C15872.6 4947.09 15882.9 4958.07 15896.4 4965.47C15909.8 4972.87 15924.6 4975.65 15938.9 4974.41L15983.8 5073.82C15978.5 5078.95 15973.6 5084.66 15969.8 5091.48C15954.1 5120.03 15959.3 5154.25 15979.7 5177.32L15939.2 5251.18C15908.7 5246.26 15877.1 5260.27 15861.4 5288.81C15857.6 5295.63 15855.4 5302.83 15854 5310.09L15746 5325.4C15739.4 5312.7 15729.1 5301.72 15715.6 5294.32C15702.2 5286.92 15687.4 5284.14 15673.1 5285.38L15628.2 5185.99C15633.5 5180.85 15638.4 5175.12 15642.2 5168.3C15657.8 5139.76 15652.7 5105.53 15632.2 5082.47L15672.8 5008.61C15703.3 5013.54 15734.9 4999.54 15750.6 4970.99ZM15974.4 5602.56L15933.8 5676.42C15903.4 5671.5 15871.7 5685.51 15856 5714.05C15853.3 5718.94 15851.4 5724.05 15849.9 5729.19L15755 5734.51C15748.7 5719.4 15737.8 5706.12 15722.3 5697.64C15707.6 5689.53 15691.3 5687.18 15675.8 5689.37L15630.6 5602.57C15632.8 5599.67 15635 5596.81 15636.8 5593.54C15652.5 5565 15647.4 5530.78 15626.9 5507.71L15667.5 5433.85C15697.9 5438.76 15729.6 5424.76 15745.3 5396.21C15749 5389.39 15751.2 5382.19 15752.7 5374.95L15860.7 5359.61C15867.3 5372.33 15877.6 5383.31 15891 5390.71C15904.5 5398.11 15919.2 5400.89 15933.5 5399.66L15978.4 5499.07C15973.1 5504.19 15968.2 5509.91 15964.5 5516.72C15948.8 5545.27 15953.9 5579.49 15974.4 5602.56ZM15505.3 5521.25C15503.5 5524.52 15502.3 5527.93 15501 5531.34L15403.5 5539.69C15397 5525.44 15386.3 5512.96 15371.6 5504.85C15356.1 5496.37 15339 5494.23 15322.9 5496.98L15276.6 5414.09C15280.1 5410.06 15283.3 5405.65 15286 5400.76C15301.7 5372.22 15296.6 5337.99 15276.1 5314.93L15316.7 5241.07C15347.2 5245.98 15378.8 5231.97 15394.5 5203.43C15398.2 5196.61 15400.4 5189.43 15401.9 5182.17L15509.9 5166.83C15516.5 5179.55 15526.8 5190.53 15540.2 5197.93C15553.7 5205.33 15568.5 5208.11 15582.7 5206.88L15627.7 5306.29C15622.3 5311.39 15617.5 5317.12 15613.7 5323.94C15598 5352.49 15603.2 5386.71 15623.6 5409.78L15583 5483.63C15552.6 5478.7 15521 5492.71 15505.3 5521.25ZM15657.6 5348.04C15664.2 5335.94 15679.4 5331.53 15691.5 5338.16C15703.6 5344.8 15708.1 5360.04 15701.4 5372.14C15694.8 5384.24 15679.5 5388.65 15667.4 5382.01C15655.4 5375.37 15650.9 5360.14 15657.6 5348.04ZM15915.1 5346.86C15903 5340.22 15898.6 5324.99 15905.2 5312.89C15911.9 5300.79 15927.1 5296.38 15939.2 5303.02C15951.3 5309.65 15955.7 5324.89 15949.1 5336.99C15942.4 5349.09 15927.2 5353.5 15915.1 5346.86ZM15588.4 5110.23C15600.5 5116.87 15605 5132.1 15598.3 5144.21C15591.7 5156.31 15576.4 5160.72 15564.3 5154.08C15552.3 5147.44 15547.8 5132.21 15554.5 5120.11C15561.1 5108.01 15576.4 5103.59 15588.4 5110.23ZM15340.8 5145.38C15352.8 5152.02 15357.3 5167.25 15350.6 5179.35C15344 5191.46 15328.7 5195.87 15316.7 5189.23C15304.6 5182.59 15300.1 5167.36 15306.8 5155.26C15313.4 5143.16 15328.7 5138.74 15340.8 5145.38ZM15208.2 5386.54C15196.1 5379.9 15191.7 5364.67 15198.3 5352.57C15205 5340.47 15220.2 5336.05 15232.3 5342.69C15244.4 5349.33 15248.8 5364.56 15242.2 5376.66C15235.5 5388.77 15220.3 5393.18 15208.2 5386.54ZM15323.4 5592.55C15311.3 5585.91 15306.8 5570.68 15313.5 5558.57C15320.1 5546.47 15335.4 5542.06 15347.5 5548.7C15359.5 5555.34 15364 5570.57 15357.3 5582.67C15350.7 5594.77 15335.4 5599.19 15323.4 5592.55ZM15559 5579.32C15546.9 5572.68 15542.5 5557.45 15549.1 5545.35C15555.8 5533.25 15571 5528.84 15583.1 5535.47C15595.2 5542.11 15599.6 5557.34 15593 5569.45C15586.3 5581.55 15571.1 5585.96 15559 5579.32ZM15674.1 5785.33C15662.1 5778.69 15657.6 5763.46 15664.3 5751.36C15670.9 5739.25 15686.2 5734.84 15698.2 5741.48C15710.3 5748.12 15714.8 5763.35 15708.1 5775.45C15701.5 5787.56 15686.2 5791.97 15674.1 5785.33ZM15909.8 5772.1C15897.7 5765.46 15893.2 5750.23 15899.9 5738.13C15906.5 5726.03 15921.8 5721.62 15933.9 5728.26C15945.9 5734.9 15950.4 5750.13 15943.7 5762.23C15937.1 5774.33 15921.8 5778.74 15909.8 5772.1ZM16042.3 5530.95C16054.4 5537.59 16058.8 5552.82 16052.2 5564.92C16045.5 5577.02 16030.3 5581.43 16018.2 5574.79C16006.1 5568.15 16001.7 5552.92 16008.3 5540.82C16015 5528.72 16030.2 5524.31 16042.3 5530.95ZM16295.3 5070.56C16307.4 5077.2 16311.9 5092.43 16305.2 5104.53C16298.6 5116.63 16283.3 5121.04 16271.2 5114.4C16259.1 5107.76 16254.7 5092.53 16261.4 5080.43C16268 5068.33 16283.2 5063.92 16295.3 5070.56ZM16047.6 5105.71C16059.7 5112.34 16064.2 5127.58 16057.5 5139.68C16050.9 5151.78 16035.6 5156.19 16023.5 5149.55C16011.5 5142.91 16007 5127.68 16013.7 5115.58C16020.3 5103.48 16035.6 5099.07 16047.6 5105.71ZM15944.6 4877.78C15956.6 4884.41 15961.1 4899.65 15954.4 4911.75C15947.8 4923.85 15932.5 4928.26 15920.5 4921.62C15908.4 4914.98 15903.9 4899.75 15910.6 4887.65C15917.2 4875.55 15932.5 4871.14 15944.6 4877.78ZM15696.9 4912.92C15709 4919.56 15713.4 4934.79 15706.7 4946.9C15700.1 4959 15684.9 4963.41 15672.8 4956.77C15660.7 4950.13 15656.3 4934.9 15662.9 4922.8C15669.6 4910.7 15684.8 4906.29 15696.9 4912.92ZM15593.8 4684.99C15605.9 4691.63 15610.3 4706.86 15603.7 4718.97C15597 4731.07 15581.8 4735.48 15569.7 4728.84C15557.6 4722.2 15553.2 4706.97 15559.8 4694.87C15566.5 4682.77 15581.7 4678.35 15593.8 4684.99Z" fill="black"/>
<path d="M15267.3 5019.37L15179.6 4971.17L15155.5 5015.02L15243.2 5063.21L15267.3 5019.37Z" fill="black"/>
<path d="M15050.4 5413.99L14962.7 5365.79L14938.6 5409.64L15026.3 5457.83L15050.4 5413.99Z" fill="black"/>
<path d="M15002.2 5501.68L14914.5 5453.49L14890.4 5497.33L14978.1 5545.53L15002.2 5501.68Z" fill="black"/>
<path d="M16275.8 5573.62L16188.1 5525.42L16164 5569.27L16251.7 5617.46L16275.8 5573.62Z" fill="black"/>
<path d="M15835.3 5959.54L15791.5 5935.44L15767.4 5979.29L15811.2 6003.38L15835.3 5959.54Z" fill="black"/>
<path d="M15923 6007.73L15879.1 5983.64L15855 6027.48L15898.9 6051.58L15923 6007.73Z" fill="black"/>
<path d="M16010.7 6055.93L15966.8 6031.83L15942.7 6075.68L15986.6 6099.78L16010.7 6055.93Z" fill="black"/>
<g clip-path="url(#clip1)">
<path d="M2964.93 6147.55L2878.42 6002.68C2892.01 5988.97 2902.5 5971.93 2907.56 5951.9C2922.62 5892.18 2886.31 5831.37 2826.59 5816.31C2766.88 5801.25 2706.07 5837.56 2691.01 5897.27C2675.95 5956.99 2712.26 6017.8 2771.97 6032.86C2792 6037.91 2811.99 6036.76 2830.49 6031.3L2917 6176.17L2964.93 6147.55ZM2745.15 5910.93C2752.68 5881.07 2783.08 5862.92 2812.94 5870.45C2842.8 5877.98 2860.95 5908.38 2853.42 5938.24C2845.89 5968.1 2815.48 5986.25 2785.63 5978.72C2755.77 5971.19 2737.62 5940.79 2745.15 5910.93Z" fill="black"/>
<path d="M3748.55 6343.45L3622.73 6170.53C3629.59 6160.22 3635.21 6148.91 3638.4 6136.24C3653.47 6076.53 3617.15 6015.72 3557.44 6000.66C3497.73 5985.6 3436.92 6021.91 3421.86 6081.62C3418.66 6094.29 3418.24 6106.91 3419.39 6119.24L3226.61 6211.8L3250.8 6262.12L3438.57 6171.98C3453.42 6193.55 3475.48 6210.31 3502.82 6217.21C3530.16 6224.1 3557.53 6219.81 3580.84 6207.87L3703.38 6376.28L3748.55 6343.45ZM3516.47 6163.07C3486.62 6155.54 3468.46 6125.14 3475.99 6095.28C3483.52 6065.42 3513.93 6047.27 3543.79 6054.8C3573.64 6062.33 3591.8 6092.73 3584.27 6122.59C3576.74 6152.45 3546.33 6170.6 3516.47 6163.07Z" fill="black"/>
<path d="M2608.11 6682.5C2667.82 6697.56 2728.63 6661.25 2743.69 6601.54C2748.74 6581.51 2747.59 6561.52 2742.13 6543.01L2887 6456.51L2858.38 6408.58L2713.51 6495.09C2699.81 6481.49 2682.76 6471.01 2662.73 6465.95C2603.02 6450.89 2542.21 6487.2 2527.14 6546.92C2512.08 6606.63 2548.39 6667.44 2608.11 6682.5ZM2649.07 6520.09C2678.93 6527.62 2697.09 6558.03 2689.55 6587.88C2682.02 6617.74 2651.62 6635.89 2621.76 6628.36C2591.91 6620.83 2573.75 6590.43 2581.28 6560.57C2588.81 6530.71 2619.22 6512.56 2649.07 6520.09Z" fill="black"/>
<path d="M2668.59 6899.29C2683.65 6839.58 2647.34 6778.77 2587.62 6763.71C2527.91 6748.64 2467.1 6784.96 2452.04 6844.67C2436.98 6904.38 2473.29 6965.19 2533 6980.25C2563.02 6987.83 2593.3 6982.36 2617.95 6967.51L2679.32 7027.61L2718.4 6987.72L2656.77 6927.32C2661.71 6918.66 2666.02 6909.47 2668.59 6899.29ZM2546.66 6926.12C2516.8 6918.59 2498.64 6888.18 2506.18 6858.32C2513.71 6828.47 2544.11 6810.31 2573.97 6817.84C2603.82 6825.37 2621.98 6855.78 2614.45 6885.64C2606.92 6915.49 2576.51 6933.65 2546.66 6926.12Z" fill="black"/>
<path d="M2682.17 7268.56L2653.55 7220.63L2508.68 7307.14C2494.97 7293.55 2477.93 7283.06 2457.9 7278.01C2398.18 7262.94 2337.37 7299.26 2322.31 7358.97C2307.25 7418.68 2343.56 7479.49 2403.27 7494.55C2462.99 7509.62 2523.8 7473.3 2538.86 7413.59C2543.91 7393.56 2542.76 7373.58 2537.3 7355.07L2682.17 7268.56ZM2416.93 7440.42C2387.07 7432.89 2368.92 7402.48 2376.45 7372.62C2383.98 7342.77 2414.38 7324.61 2444.24 7332.14C2474.1 7339.67 2492.25 7370.08 2484.72 7399.94C2477.19 7429.79 2446.79 7447.95 2416.93 7440.42Z" fill="black"/>
<path d="M3919.59 7646.7C3889.57 7639.13 3859.29 7644.59 3834.64 7659.45L3773.28 7599.35L3734.19 7639.24L3795.83 7699.64C3790.88 7708.3 3786.57 7717.49 3784.01 7727.67C3768.95 7787.38 3805.26 7848.19 3864.97 7863.25C3924.68 7878.31 3985.49 7842 4000.55 7782.29C4015.62 7722.58 3979.3 7661.77 3919.59 7646.7ZM3878.63 7809.11C3848.77 7801.58 3830.61 7771.18 3838.14 7741.32C3845.68 7711.47 3876.08 7693.31 3905.94 7700.84C3935.79 7708.37 3953.95 7738.78 3946.42 7768.63C3938.89 7798.49 3908.48 7816.65 3878.63 7809.11Z" fill="black"/>
<path d="M4288.29 6185.01C4228.58 6169.95 4167.77 6206.26 4152.7 6265.97C4147.65 6286 4148.8 6305.99 4154.27 6324.49L4009.39 6411L4038.01 6458.93L4182.89 6372.42C4196.59 6386.01 4213.64 6396.5 4233.67 6401.56C4293.38 6416.62 4354.19 6380.31 4369.25 6320.59C4384.31 6260.88 4348 6200.07 4288.29 6185.01ZM4247.32 6347.42C4217.47 6339.89 4199.31 6309.48 4206.84 6279.63C4214.37 6249.77 4244.78 6231.62 4274.63 6239.15C4304.49 6246.68 4322.65 6277.08 4315.11 6306.94C4307.58 6336.79 4277.18 6354.95 4247.32 6347.42Z" fill="black"/>
<path d="M3758.64 6915.13C3698.92 6900.07 3638.11 6936.38 3623.05 6996.09C3610.36 7046.39 3634.38 7097.16 3677.91 7121.01L3635.98 7287.26L3690.12 7300.92L3732.05 7134.66C3781.69 7134.31 3826.91 7101.01 3839.6 7050.71C3854.66 6991 3818.35 6930.19 3758.64 6915.13ZM3717.67 7077.54C3687.81 7070.01 3669.66 7039.6 3677.19 7009.75C3684.72 6979.89 3715.12 6961.74 3744.98 6969.27C3774.84 6976.8 3792.99 7007.2 3785.46 7037.06C3777.93 7066.92 3747.53 7085.07 3717.67 7077.54Z" fill="black"/>
<path d="M4124.42 6834.65C4104.39 6829.6 4084.41 6830.75 4065.9 6836.21L3979.39 6691.34L3931.46 6719.96L4017.97 6864.83C4004.38 6878.54 3993.89 6895.58 3988.84 6915.61C3973.78 6975.33 4010.09 7036.14 4069.8 7051.2C4129.51 7066.26 4190.32 7029.95 4205.39 6970.24C4220.45 6910.52 4184.14 6849.71 4124.42 6834.65ZM4083.46 6997.06C4053.6 6989.53 4035.44 6959.13 4042.98 6929.27C4050.51 6899.41 4080.91 6881.26 4110.77 6888.79C4140.62 6896.32 4158.78 6926.72 4151.25 6956.58C4143.72 6986.44 4113.31 7004.59 4083.46 6997.06Z" fill="black"/>
<path d="M3290.81 6840.17C3304.08 6852.5 3320.17 6862.11 3338.95 6866.85C3398.67 6881.91 3459.48 6845.6 3474.54 6785.89C3478.39 6770.62 3478.79 6755.32 3476.41 6740.7L3668.93 6656.13L3646.44 6605L3453.56 6689.73C3438.82 6671.01 3418.4 6656.56 3393.58 6650.3C3366.29 6643.42 3338.96 6647.67 3315.69 6659.59L3173.01 6457.62L3127.43 6489.86L3273.71 6696.91C3266.82 6707.23 3261.19 6718.57 3257.99 6731.27C3251.48 6757.09 3255.04 6782.92 3265.5 6805.37L3261.69 6800.14L2997.23 6992.55L3030.09 7037.69L3294.56 6845.29L3290.81 6840.17ZM3379.92 6704.44C3409.78 6711.97 3427.93 6742.38 3420.4 6772.23C3412.87 6802.09 3382.47 6820.24 3352.61 6812.71C3322.75 6805.18 3304.6 6774.78 3312.13 6744.92C3319.66 6715.06 3350.06 6696.91 3379.92 6704.44Z" fill="black"/>
<path d="M3391.02 7220.75C3394.43 7213.84 3397.23 7206.51 3399.19 7198.74C3414.25 7139.03 3377.94 7078.22 3318.23 7063.16C3261.03 7048.73 3203.31 7081.7 3185.26 7136.92L3037.51 7127.78L3034.08 7183.52L3181.66 7192.64C3189.68 7233.77 3220.35 7268.79 3263.61 7279.7C3296.09 7287.9 3328.64 7280.51 3354.25 7262.78L3461.95 7355.47L3498.39 7313.16L3391.02 7220.75ZM3277.26 7225.57C3247.4 7218.04 3229.25 7187.63 3236.78 7157.78C3244.31 7127.92 3274.72 7109.76 3304.57 7117.29C3334.43 7124.83 3352.58 7155.23 3345.05 7185.09C3337.52 7214.94 3307.12 7233.1 3277.26 7225.57Z" fill="black"/>
<path d="M3405.2 7477.83L3157.53 7504.15C3145.09 7471.07 3117.28 7444.33 3080.47 7435.04C3020.76 7419.98 2959.95 7456.29 2944.88 7516.01C2929.82 7575.72 2966.13 7636.53 3025.85 7651.59C3085.56 7666.65 3146.37 7630.34 3161.43 7570.63C3162.35 7566.97 3162.49 7563.35 3163.03 7559.72L3411.09 7533.35L3405.2 7477.83ZM3039.5 7597.45C3009.65 7589.92 2991.49 7559.52 2999.02 7529.66C3006.55 7499.81 3036.96 7481.65 3066.81 7489.18C3096.67 7496.71 3114.83 7527.12 3107.3 7556.97C3099.76 7586.83 3069.36 7604.99 3039.5 7597.45Z" fill="black"/>
<path d="M2987.55 6547.89C2868.15 6517.77 2795.51 6396.12 2825.62 6276.72C2855.74 6157.32 2977.39 6084.67 3096.79 6114.79C3216.19 6144.91 3288.84 6266.56 3258.72 6385.96C3228.6 6505.36 3106.95 6578 2987.55 6547.89Z" fill="#F0BC5E"/>
<path d="M2782.72 7359.94C2663.32 7329.82 2590.67 7208.17 2620.79 7088.77C2650.91 6969.37 2772.56 6896.73 2891.96 6926.85C3011.36 6956.96 3084 7078.62 3053.89 7198.02C3023.77 7317.41 2902.12 7390.06 2782.72 7359.94Z" fill="#F0BC5E"/>
<path d="M3560.63 7700.11C3441.23 7670 3368.59 7548.34 3398.71 7428.94C3428.82 7309.55 3550.48 7236.9 3669.88 7267.02C3789.27 7297.14 3861.92 7418.79 3831.8 7538.19C3801.68 7657.59 3680.03 7730.23 3560.63 7700.11Z" fill="#F0BC5E"/>
<path d="M3799.6 6752.72C3680.2 6722.6 3607.56 6600.95 3637.68 6481.55C3667.79 6362.15 3789.45 6289.51 3908.85 6319.62C4028.25 6349.74 4100.89 6471.39 4070.77 6590.79C4040.65 6710.19 3919 6782.84 3799.6 6752.72Z" fill="#F0BC5E"/>
<path d="M3642.56 7375.29L3588.43 7361.64L3574.77 7415.77L3628.91 7429.43L3642.56 7375.29Z" fill="black"/>
<path d="M3642.32 7490.39L3588.19 7476.74L3574.53 7530.88L3628.67 7544.53L3642.32 7490.39Z" fill="black"/>
<path d="M2939.03 7082.67L2884.89 7069.01L2871.24 7123.15L2925.37 7136.81L2939.03 7082.67Z" fill="black"/>
<path d="M2877.82 7211.18L2823.68 7197.53L2810.03 7251.67L2864.16 7265.32L2877.82 7211.18Z" fill="black"/>
<path d="M2796.86 7075.6L2742.72 7061.94L2729.07 7116.08L2783.2 7129.74L2796.86 7075.6Z" fill="black"/>
<path d="M3089.72 6256.96L3035.59 6243.31L3021.93 6297.44L3076.07 6311.1L3089.72 6256.96Z" fill="black"/>
<path d="M3177.51 6365.48L3123.38 6351.82L3109.72 6405.96L3163.86 6419.61L3177.51 6365.48Z" fill="black"/>
<path d="M2988.04 6317.68L2933.9 6304.03L2920.24 6358.17L2974.38 6371.82L2988.04 6317.68Z" fill="black"/>
<path d="M3800.09 6522.52L3745.95 6508.86L3732.3 6563L3786.43 6576.65L3800.09 6522.52Z" fill="black"/>
<path d="M3955.91 6475.45L3901.78 6461.79L3888.12 6515.93L3942.26 6529.59L3955.91 6475.45Z" fill="black"/>
</g>
<path d="M15139.1 1671.29C15139.1 1583.39 15167.8 1502.39 15216 1436.45H15209.5C15021.6 1436.45 15021.6 1366 14833.8 1366H14821.3L14547.8 1848.55C14535.2 1870.9 14528.5 1896.15 14528.5 1921.84C14528.5 2003.96 14595 2070.52 14677.2 2070.52H15538.3C15317.8 2070.52 15139.1 1891.78 15139.1 1671.29Z" fill="#F0BC5E"/>
<path d="M15373.6 1906.08C15362 1906.08 15350.3 1904.88 15338.7 1902.44C15276.4 1889.43 15225.9 1838.78 15213.1 1776.4C15199.6 1711.02 15226 1644.45 15280.2 1606.8C15284.8 1603.61 15288.4 1597.55 15286.5 1592.1C15282.2 1579.75 15280 1566.9 15280 1553.87C15280 1517.96 15296.1 1484.5 15324.2 1462.07C15352.3 1439.65 15388.9 1431.47 15424.6 1439.53C15467.5 1449.27 15501.7 1483.37 15511.6 1526.44C15519 1558.24 15513.4 1590.53 15495.9 1617.32C15492.4 1622.68 15494.6 1630.15 15498.6 1634.77C15524.2 1664.53 15538.3 1702.52 15538.3 1741.74C15538.3 1791.46 15516.1 1837.98 15477.5 1869.38C15448 1893.38 15411.4 1906.08 15373.6 1906.08Z" fill="#F0BC5E"/>
<path d="M15726.3 1906.11C15699.7 1906.11 15673.9 1897.28 15652.9 1880.51C15624.9 1858.08 15608.7 1824.62 15608.7 1788.71C15608.7 1775.68 15610.9 1762.83 15615.3 1750.5C15617.2 1745.03 15613.6 1738.97 15609 1735.78C15554.7 1698.13 15528.4 1631.56 15541.9 1566.15C15554.7 1503.8 15605.1 1453.15 15667.5 1440.14C15717 1429.78 15767.7 1441.81 15806.3 1473.21C15844.9 1504.6 15867.1 1551.12 15867.1 1600.84C15867.1 1640.06 15853 1678.06 15827.4 1707.81C15823.4 1712.44 15821.2 1719.93 15824.7 1725.26C15842.2 1752.05 15847.8 1784.34 15840.4 1816.14C15830.5 1859.21 15796.3 1893.31 15753.4 1903.05C15744.3 1905.1 15735.3 1906.11 15726.3 1906.11Z" fill="#F0BC5E"/>
<path d="M15397.4 1201.61C15441 1201.61 15477.5 1171.55 15488 1131.16H15776.5C15787 1171.55 15823.4 1201.61 15867.1 1201.61C15918.9 1201.61 15961 1159.48 15961 1107.68C15961 1055.87 15918.9 1013.74 15867.1 1013.74C15856.4 1013.74 15846.3 1015.93 15836.7 1019.21L15701.8 794.45C15716.8 777.799 15726.2 756.03 15726.2 731.935C15726.2 680.13 15684 638 15632.2 638C15580.4 638 15538.3 680.13 15538.3 731.935C15538.3 756.03 15547.7 777.799 15562.6 794.45L15427.8 1019.21C15418.2 1015.93 15408.1 1013.74 15397.4 1013.74C15345.6 1013.74 15303.5 1055.87 15303.5 1107.68C15303.5 1159.48 15345.6 1201.61 15397.4 1201.61ZM15632.2 825.871C15642.9 825.871 15653 823.687 15662.6 820.399L15797.5 1045.16C15787.6 1056.18 15780.3 1069.45 15776.5 1084.19H15488C15484.2 1069.45 15476.9 1056.18 15467 1045.16L15601.8 820.399C15611.4 823.687 15621.5 825.871 15632.2 825.871ZM15914 1107.68C15914 1133.58 15893 1154.65 15867.1 1154.65C15841.2 1154.65 15820.1 1133.58 15820.1 1107.68C15820.1 1081.77 15841.2 1060.71 15867.1 1060.71C15893 1060.71 15914 1081.77 15914 1107.68ZM15632.2 684.968C15658.1 684.968 15679.2 706.033 15679.2 731.935C15679.2 757.838 15658.1 778.903 15632.2 778.903C15606.3 778.903 15585.3 757.838 15585.3 731.935C15585.3 706.033 15606.3 684.968 15632.2 684.968ZM15397.4 1060.71C15423.3 1060.71 15444.4 1081.77 15444.4 1107.68C15444.4 1133.58 15423.3 1154.65 15397.4 1154.65C15371.5 1154.65 15350.4 1133.58 15350.4 1107.68C15350.4 1081.77 15371.5 1060.71 15397.4 1060.71Z" fill="black"/>
<path d="M15538.3 1248.58C15455.7 1248.58 15378.7 1272.79 15313.5 1313.96L15233 1171.93V825.871C15284.8 825.871 15326.9 783.741 15326.9 731.935C15326.9 680.13 15284.8 638 15233 638H14904.2C14852.4 638 14810.3 680.13 14810.3 731.935C14810.3 783.741 14852.4 825.871 14904.2 825.871V1171.93L14527.4 1836.97C14512.7 1862.78 14505 1892.13 14505 1921.84C14505 2016.76 14582.2 2094 14677.2 2094H15538.3C15771.4 2094 15961 1904.37 15961 1671.29C15961 1438.21 15771.4 1248.58 15538.3 1248.58ZM14677.2 2047.03C14608.1 2047.03 14552 1990.88 14552 1921.84C14552 1900.23 14557.6 1878.89 14568.2 1860.12L14951.2 1184.33V825.871H15092.1V778.903H14904.2C14878.3 778.903 14857.3 757.838 14857.3 731.935C14857.3 706.033 14878.3 684.968 14904.2 684.968H15233C15258.9 684.968 15280 706.033 15280 731.935C15280 757.838 15258.9 778.903 15233 778.903H15139.1V825.871H15186V1184.33L15274.9 1341.22C15178 1418.74 15115.6 1537.78 15115.6 1671.29C15115.6 1834.9 15209.2 1976.82 15345.5 2047.03H14677.2ZM15538.3 2047.03C15331.1 2047.03 15162.5 1878.47 15162.5 1671.29C15162.5 1464.12 15331.1 1295.55 15538.3 1295.55C15745.5 1295.55 15914 1464.12 15914 1671.29C15914 1878.47 15745.5 2047.03 15538.3 2047.03Z" fill="black"/>
<path d="M14739.8 1812.19C14701 1812.19 14669.4 1843.8 14669.4 1882.64C14669.4 1921.49 14701 1953.1 14739.8 1953.1C14778.7 1953.1 14810.3 1921.49 14810.3 1882.64C14810.3 1843.8 14778.7 1812.19 14739.8 1812.19ZM14739.8 1906.13C14726.9 1906.13 14716.4 1895.58 14716.4 1882.64C14716.4 1869.71 14726.9 1859.16 14739.8 1859.16C14752.8 1859.16 14763.3 1869.71 14763.3 1882.64C14763.3 1895.58 14752.8 1906.13 14739.8 1906.13Z" fill="black"/>
<path d="M14998.2 1624.32C14959.3 1624.32 14927.7 1655.93 14927.7 1694.77C14927.7 1733.62 14959.3 1765.23 14998.2 1765.23C15037 1765.23 15068.6 1733.62 15068.6 1694.77C15068.6 1655.93 15037 1624.32 14998.2 1624.32ZM14998.2 1718.26C14985.2 1718.26 14974.7 1707.71 14974.7 1694.77C14974.7 1681.83 14985.2 1671.29 14998.2 1671.29C15011.1 1671.29 15021.6 1681.83 15021.6 1694.77C15021.6 1707.71 15011.1 1718.26 14998.2 1718.26Z" fill="black"/>
<path d="M15373.9 1671.29C15335.1 1671.29 15303.5 1702.9 15303.5 1741.74C15303.5 1780.59 15335.1 1812.19 15373.9 1812.19C15412.7 1812.19 15444.4 1780.59 15444.4 1741.74C15444.4 1702.9 15412.7 1671.29 15373.9 1671.29ZM15373.9 1765.23C15360.9 1765.23 15350.4 1754.68 15350.4 1741.74C15350.4 1728.8 15360.9 1718.26 15373.9 1718.26C15386.9 1718.26 15397.4 1728.8 15397.4 1741.74C15397.4 1754.68 15386.9 1765.23 15373.9 1765.23Z" fill="black"/>
<path d="M15702.7 1530.39C15663.8 1530.39 15632.2 1562 15632.2 1600.84C15632.2 1639.68 15663.8 1671.29 15702.7 1671.29C15741.5 1671.29 15773.1 1639.68 15773.1 1600.84C15773.1 1562 15741.5 1530.39 15702.7 1530.39ZM15702.7 1624.32C15689.7 1624.32 15679.2 1613.78 15679.2 1600.84C15679.2 1587.9 15689.7 1577.35 15702.7 1577.35C15715.6 1577.35 15726.2 1587.9 15726.2 1600.84C15726.2 1613.78 15715.6 1624.32 15702.7 1624.32Z" fill="black"/>
<path d="M15726.2 1812.19C15739.1 1812.19 15749.6 1801.68 15749.6 1788.71C15749.6 1775.74 15739.1 1765.23 15726.2 1765.23C15713.2 1765.23 15702.7 1775.74 15702.7 1788.71C15702.7 1801.68 15713.2 1812.19 15726.2 1812.19Z" fill="black"/>
<path d="M15397.4 1577.35C15410.4 1577.35 15420.9 1566.84 15420.9 1553.87C15420.9 1540.9 15410.4 1530.39 15397.4 1530.39C15384.4 1530.39 15373.9 1540.9 15373.9 1553.87C15373.9 1566.84 15384.4 1577.35 15397.4 1577.35Z" fill="black"/>
<g clip-path="url(#clip2)">
<path d="M13818.1 10990.5C13811 10988.5 13804 10986.3 13797.1 10984C13602.1 10918.4 13479.5 10716.2 13511.9 10513.6C13522.9 10444.6 13549.3 10381.5 13590.3 10326.2C13654.5 10239.4 13701.1 10146.1 13728.5 10048.8C13755.9 9951.79 13764.9 9847.73 13755.5 9739.5C13751 9688.37 13755.9 9637.17 13769.9 9587.41C13801.9 9473.81 13877 9380.87 13981.5 9325.75C14085.8 9270.67 14204.9 9261.02 14317.3 9298.83C14512.3 9364.43 14634.8 9566.67 14602.5 9769.24C14591.4 9838.27 14565.1 9901.32 14524.1 9956.61C14459.8 10043.4 14413.3 10136.7 14385.8 10234.1C14358.5 10331 14349.4 10435.1 14358.9 10543.3C14363.3 10594.5 14358.5 10645.6 14344.5 10695.4C14312.4 10809 14237.3 10901.9 14132.9 10957.1C14035 11008.7 13924 11020.4 13818.1 10990.5Z" fill="#F0BC5E"/>
<path d="M14956 10099.1C14910.7 10086.4 14884.2 10039.1 14897 9993.82C14909.8 9948.52 14957 9922.05 15002.3 9934.82C15047.6 9947.59 15074.1 9994.84 15061.3 10040.1C15048.5 10085.4 15001.3 10111.9 14956 10099.1Z" fill="#F0BC5E"/>
<path d="M14993.3 10700.9C14948 10688.2 14921.5 10640.9 14934.3 10595.6C14947.1 10550.3 14994.3 10523.8 15039.6 10536.6C15084.9 10549.4 15111.4 10596.6 15098.6 10641.9C15085.8 10687.2 15038.6 10713.7 14993.3 10700.9Z" fill="#F0BC5E"/>
<path d="M14250.2 9456.73C14114.3 9418.42 13972.5 9497.83 13934.2 9633.73C13895.9 9769.63 13975.3 9911.39 14111.2 9949.7C14247.1 9988.01 14388.9 9908.59 14427.2 9772.69C14465.5 9636.8 14386.1 9495.03 14250.2 9456.73ZM14126.6 9894.92C14020.9 9865.12 13959.2 9754.89 13989 9649.17C14018.8 9543.46 14129 9481.7 14234.7 9511.5C14340.4 9541.3 14402.2 9651.54 14372.4 9757.25C14342.6 9862.97 14232.4 9924.72 14126.6 9894.92Z" fill="black"/>
<path d="M14211.6 9593.66C14151.2 9576.63 14088.2 9611.91 14071.1 9672.33C14054.1 9732.75 14089.4 9795.73 14149.8 9812.76C14210.2 9829.79 14273.2 9794.51 14290.2 9734.09C14307.3 9673.68 14272 9610.69 14211.6 9593.66ZM14165.2 9757.99C14135 9749.47 14117.4 9717.98 14125.9 9687.77C14134.4 9657.56 14165.9 9639.92 14196.1 9648.44C14226.3 9656.95 14244 9688.44 14235.5 9718.65C14226.9 9748.86 14195.5 9766.5 14165.2 9757.99Z" fill="black"/>
<path d="M14199.7 10361.3C14210.2 10338.3 14216.3 10313.4 14217.7 10287.4C14221.9 10212 14179.8 10137.8 14112.8 10102.7C14058.4 10074.1 13995.3 10071.5 13939.9 10095.4C13884.4 10119.2 13843.2 10166.2 13826.9 10224.3C13825 10230.9 13823.5 10237.5 13822.3 10244.1C13810.7 10310.4 13785.8 10363.8 13748.4 10402.9C13709.2 10443.8 13685.1 10495.9 13678.8 10553.4C13666.5 10665.5 13731.3 10773.7 13836.2 10816.5C13845.2 10820.1 13854.4 10823.3 13863.6 10825.9C13924.2 10843 13989.3 10837.4 14046.1 10809.7C14111.5 10777.7 14160.4 10719.2 14180.1 10649.1C14191.2 10609.8 14192.8 10569.6 14184.8 10529.8C14172.4 10468 14177.6 10409.7 14199.7 10361.3ZM14021 10758.6C13969.4 10783.8 13911.2 10785.5 13857.6 10763.8C13777.4 10731.1 13726 10645.2 13735.3 10559.6C13740.3 10514.6 13759 10474 13789.5 10442.2C13834.8 10394.9 13864.7 10331.5 13878.3 10253.9C13879.2 10249.2 13880.3 10244.5 13881.6 10239.7C13893.3 10198.3 13922.8 10164.7 13962.4 10147.6C13992.6 10134.6 14026 10132.7 14057.6 10141.6C14067.4 10144.4 14077.1 10148.2 14086.4 10153.1C14134 10178.1 14163.9 10230.7 14160.9 10284.2C14159.9 10303.1 14155.5 10321.1 14147.9 10337.6C14120.8 10397 14114.3 10467.4 14129 10541C14135.2 10571.9 14134 10603.1 14125.4 10633.6C14110 10688.1 14072 10733.7 14021 10758.6Z" fill="black"/>
<path d="M13964.5 10470.1C13904.1 10453 13841.1 10488.3 13824.1 10548.7C13807.1 10609.1 13842.3 10672.1 13902.8 10689.2C13963.2 10706.2 14026.2 10670.9 14043.2 10610.5C14060.2 10550.1 14024.9 10487.1 13964.5 10470.1ZM13918.2 10634.4C13888 10625.9 13870.4 10594.4 13878.9 10564.2C13887.4 10534 13918.9 10516.3 13949.1 10524.8C13979.3 10533.3 13996.9 10564.8 13988.4 10595C13979.9 10625.3 13948.4 10642.9 13918.2 10634.4Z" fill="black"/>
<path d="M13995.4 10360.5C14040.7 10373.3 14088 10346.8 14100.7 10301.5C14113.5 10256.2 14087 10209 14041.7 10196.2C13996.4 10183.4 13949.2 10209.9 13936.4 10255.2C13923.6 10300.5 13950.1 10347.7 13995.4 10360.5ZM14026.3 10251C14041.4 10255.2 14050.2 10271 14046 10286.1C14041.7 10301.2 14025.9 10310 14010.8 10305.7C13995.8 10301.5 13986.9 10285.7 13991.2 10270.6C13995.4 10255.5 14011.2 10246.7 14026.3 10251Z" fill="black"/>
<path d="M15413.9 10257.8L15429.3 10203L15373.1 10187.2C15387 10115.5 15377.3 10043.8 15348.6 9980.97L15399.6 9952.41L15371.8 9902.77L15320.8 9931.32C15282.2 9874.06 15226.2 9828.32 15157.8 9802.74L15173.6 9746.59L15118.8 9731.15L15103 9787.32C15031.3 9773.41 14959.6 9783.16 14896.8 9811.83L14868.2 9760.85L14818.6 9788.66L14847.1 9839.64C14789.9 9878.25 14744.1 9934.26 14718.6 10002.7L14662.4 9986.86L14647 10041.6L14701.8 10057.1L14640 10276.2L14585.2 10260.7L14569.8 10315.5L14624.6 10330.9L14570.5 10522.7L14515.8 10507.2L14500.3 10562L14555.1 10577.4C14532.1 10658.9 14541.1 10741.8 14574.2 10813.2L14525 10840.7L14552.9 10890.4L14602.1 10862.7C14641.2 10920 14697.9 10965.4 14766.8 10990.5L14751 11046.5L14805.8 11062L14821.7 11005.7C14893.1 11018.9 14964.4 11008.6 15026.9 10979.6L15056.4 11032.3L15106 11004.5L15076.4 10951.6C15140.3 10908 15189.8 10842.8 15212.4 10762.7L15267.2 10778.1L15282.6 10723.4L15227.8 10707.9L15281.9 10516.2L15336.7 10531.6L15352.1 10476.9L15297.3 10461.4L15359.1 10242.3L15413.9 10257.8ZM15157.6 10747.2C15115.1 10898.3 14957.6 10986.5 14806.5 10943.9C14655.5 10901.4 14567.3 10743.9 14609.9 10592.8L14764.3 10045.1C14806.8 9894.09 14964.3 9805.86 15115.4 9848.43C15266.4 9891 15354.6 10048.5 15312 10199.5L15157.6 10747.2Z" fill="black"/>
<path d="M15089.4 10255L15074 10309.8C15149.5 10331.1 15228.2 10287 15249.5 10211.5L15194.8 10196C15182 10241.3 15134.7 10267.8 15089.4 10255Z" fill="black"/>
<path d="M14734.9 10569L14680.1 10553.5C14658.8 10629 14702.9 10707.8 14778.4 10729L14793.9 10674.3C14748.6 10661.5 14722.1 10614.3 14734.9 10569Z" fill="black"/>
<path d="M14913.2 10146.2L14858.4 10130.8L14842.9 10185.5L14897.7 10201L14913.2 10146.2Z" fill="black"/>
<path d="M14953.2 10423.6L14898.5 10408.1L14883 10462.9L14937.8 10478.3L14953.2 10423.6Z" fill="black"/>
<path d="M14935 10802.8L14880.3 10787.3L14864.8 10842.1L14919.6 10857.5L14935 10802.8Z" fill="black"/>
<path d="M15233.4 10059.1L15178.6 10043.6L15163.1 10098.4L15217.9 10113.8L15233.4 10059.1Z" fill="black"/>
</g>
<g clip-path="url(#clip3)">
<path d="M2090.07 10966.4C1846.13 10901.6 1700.39 10650.5 1765.17 10406.5C1829.96 10162.6 2081.09 10016.8 2325.03 10081.6C2568.97 10146.4 2714.71 10397.5 2649.93 10641.5C2585.14 10885.4 2334.01 11031.2 2090.07 10966.4Z" fill="#F0BC5E"/>
<path d="M1354.4 10297.4L1006.82 10205.1L990.035 10268.3L1337.62 10360.6L1354.4 10297.4Z" fill="#F0BC5E"/>
<path d="M1320.83 10423.8L973.252 10331.5L956.469 10394.7L1304.05 10487L1320.83 10423.8Z" fill="#F0BC5E"/>
<path d="M1186.57 10929.4L838.986 10837.1L822.203 10900.3L1169.78 10992.6L1186.57 10929.4Z" fill="#F0BC5E"/>
<path d="M1153 11055.8L805.42 10963.5L788.637 11026.7L1136.22 11119L1153 11055.8Z" fill="#F0BC5E"/>
<path d="M2776.32 10675C2859.61 10361.4 2672.21 10038.5 2358.6 9955.23C2044.99 9871.94 1722.07 10059.3 1638.78 10372.9C1570.06 10631.7 1685.88 10896.4 1904.56 11028L1881.73 11114L1818.53 11097.2L1801.75 11160.4L1864.95 11177.2L1848.16 11240.4L1784.97 11223.6L1768.18 11286.8L1831.38 11303.6L1722.29 11714.4C1699.16 11801.5 1751.21 11891.2 1838.32 11914.3C1925.44 11937.5 2015.14 11885.4 2038.27 11798.3L2147.36 11387.5L2210.56 11404.3L2227.34 11341.1L2164.15 11324.3L2180.93 11261.1L2244.13 11277.9L2260.91 11214.7L2197.71 11197.9L2220.55 11111.9C2475.71 11106.2 2707.6 10933.8 2776.32 10675ZM1701.98 10389.7C1776.01 10111 2063.06 9944.39 2341.82 10018.4C2620.58 10092.5 2787.15 10379.5 2713.12 10658.3C2639.09 10937 2352.05 11103.6 2073.29 11029.6C1794.53 10955.5 1627.95 10668.5 1701.98 10389.7ZM1975.08 11781.5C1961.2 11833.8 1907.37 11865 1855.11 11851.1C1802.84 11837.2 1771.61 11783.4 1785.49 11731.2L1894.58 11320.4L2084.17 11370.7L1975.08 11781.5ZM2100.95 11307.5L1911.36 11257.2L1928.14 11194L2117.73 11244.3L2100.95 11307.5ZM2134.52 11181.1L1944.93 11130.8L1963.98 11059C1993.5 11072.4 2024.15 11084.2 2056.5 11092.8C2088.86 11101.4 2121.29 11106.4 2153.57 11109.4L2134.52 11181.1Z" fill="black"/>
<path d="M2460.34 10591.1L2523.53 10607.9C2569.81 10433.7 2465.7 10254.3 2291.47 10208L2274.68 10271.2C2414.06 10308.2 2497.35 10451.7 2460.34 10591.1Z" fill="black"/>
<path d="M2028.32 10307.3L1965.12 10290.5L1931.56 10416.9L1994.76 10433.7L2028.32 10307.3Z" fill="black"/>
<path d="M2281.11 10374.4L2217.91 10357.6L2184.34 10484L2247.54 10500.8L2281.11 10374.4Z" fill="black"/>
<path d="M1969.58 10528.5L1906.38 10511.7L1872.82 10638.1L1936.02 10654.8L1969.58 10528.5Z" fill="black"/>
<path d="M2222.37 10595.6L2159.17 10578.8L2125.6 10705.2L2188.8 10722L2222.37 10595.6Z" fill="black"/>
<path d="M1495.82 9759.93C1473.98 9842.18 1404.09 9878.48 1268.64 9919.16C1170.88 9816.25 1128.69 9751.16 1150.71 9668.27L1159.1 9636.68L968.275 9586L959.884 9617.6C920.351 9766.46 981.272 9884.29 1061.96 9982.84C950.745 10025.2 832.668 10096.6 792.07 10249.5C752.538 10398.4 813.395 10516.2 894.049 10614.7C782.908 10657.1 664.863 10728.5 624.231 10881.5C584.699 11030.4 645.547 11148.2 726.21 11246.7C615.069 11289.1 497.032 11360.5 456.392 11513.5L448.001 11545.1L638.823 11595.8L647.214 11564.2C669.485 11480.3 741.212 11444.6 874.275 11404.8C972.153 11507.7 1014.4 11572.9 992.362 11655.8L983.97 11687.4L1174.76 11738.1L1183.15 11706.5C1222.68 11557.6 1161.83 11439.8 1081.17 11341.3C1192.31 11298.9 1310.36 11227.5 1350.99 11074.5C1391.36 10922.5 1328.38 10805.3 1249.23 10709.2C1360.31 10666.9 1478.22 10595.4 1518.83 10442.5C1558.36 10293.6 1497.44 10175.8 1416.76 10077.3C1527.97 10034.9 1646.05 9963.48 1686.64 9810.6L1695.04 9779.01L1504.21 9728.33L1495.82 9759.93ZM594.558 11516.4L529.655 11499.1C573.024 11386.3 673.629 11333.9 772.419 11299.4C789.361 11317.7 806.417 11335.2 823.116 11352.2C722.584 11384.3 633.073 11425.2 594.558 11516.4ZM1126.74 11657.7L1061.86 11640.5C1076.12 11526 997.703 11436.1 879.938 11316.7C762.29 11197.5 640.712 11074.2 687.428 10898.3C723.201 10763.6 832.78 10704.9 940.258 10667.4C957.169 10685.7 974.232 10703.2 990.908 10720.1C879.62 10755.7 781.909 10802.1 751.833 10915.4C717.21 11045.7 798.88 11141 927.445 11271.3C1037.81 11383.2 1151.66 11498.6 1126.74 11657.7ZM933.131 11183.3C835.222 11080.3 793.009 11015.2 815.053 10932.2C837.324 10848.3 909.042 10812.6 1042.11 10772.8C1140.02 10875.8 1182.24 10940.9 1160.2 11023.8C1137.89 11107.7 1066.2 11143.4 933.131 11183.3ZM1287.79 11057.7C1252.02 11192.4 1142.44 11251.1 1034.96 11288.6C1018.05 11270.4 1000.98 11252.8 984.306 11235.9C1095.59 11200.4 1193.31 11153.9 1223.39 11040.6C1258 10910.3 1176.33 10815.1 1047.77 10684.7C930.129 10565.5 808.551 10442.2 855.267 10266.3C890.998 10131.7 996.084 10074.5 1108.13 10035.6C1125.02 10053.7 1142.02 10071.2 1158.68 10088.2C1039.68 10126.1 949.194 10172.2 919.664 10283.4C886.014 10410.1 966.776 10506.7 1067.62 10611L1067.76 10610.9C1068.72 10612 1069.75 10613 1070.89 10614.1L1166.47 10713.6C1251.99 10807.7 1325.82 10914.5 1287.79 11057.7ZM1101.02 10551.1C1003.65 10448.6 961.017 10382.4 982.86 10300.2C1004.7 10217.9 1074.59 10181.6 1210.05 10140.9C1307.85 10243.8 1350.03 10308.9 1328.01 10391.8C1306.17 10474.1 1236.34 10510.4 1101.02 10551.1ZM1455.63 10425.7C1419.83 10560.6 1310.04 10619.2 1202.46 10656.7L1151.9 10604C1271.04 10566.1 1361.63 10520 1391.2 10408.6C1425.82 10278.3 1344.13 10183.1 1215.58 10052.7C1105.23 9940.89 991.377 9825.47 1016.3 9666.41L1081.17 9683.64C1066.96 9798.05 1145.33 9887.97 1263.11 10007.4C1380.75 10126.6 1502.33 10249.9 1455.63 10425.7ZM1613.44 9824.99C1570.67 9937.54 1473.42 9988.6 1370.41 10024.4C1353.55 10006.3 1336.6 9988.8 1319.98 9971.9C1427.23 9937.7 1511.4 9896.9 1548.57 9807.76L1613.44 9824.99Z" fill="black"/>
<path d="M2146.32 10372.4L2083.13 10355.6L2066.34 10418.8L2129.54 10435.6L2146.32 10372.4Z" fill="black"/>
<path d="M2087.58 10593.6L2024.38 10576.8L2007.6 10640L2070.8 10656.8L2087.58 10593.6Z" fill="black"/>
<path d="M2340.37 10660.7L2277.17 10644L2260.39 10707.2L2323.59 10723.9L2340.37 10660.7Z" fill="black"/>
<path d="M2399.11 10439.6L2335.91 10422.8L2319.13 10486L2382.33 10502.8L2399.11 10439.6Z" fill="black"/>
</g>
<defs>
<clipPath id="clip0">
<rect x="972" y="1013.6" width="2039" height="2039" transform="rotate(-10.7006 972 1013.6)" fill="white"/>
</clipPath>
<clipPath id="clip1">
<rect x="2718.32" y="5789" width="1730.81" height="1730.81" transform="rotate(14.157 2718.32 5789)" fill="white"/>
</clipPath>
<clipPath id="clip2">
<rect x="13885.7" y="9176.57" width="1764.22" height="1764.22" transform="rotate(15.7426 13885.7 9176.57)" fill="white"/>
</clipPath>
<clipPath id="clip3">
<rect x="968.275" y="9586" width="2027" height="2027" transform="rotate(14.8727 968.275 9586)" fill="white"/>
</clipPath>
</defs>
</svg>
