<?xml version="1.0" encoding="iso-8859-1"?>
<!-- Generator: Adobe Illustrator 18.0.0, SVG Export Plug-In . SVG Version: 6.00 Build 0)  -->
<!DOCTYPE svg PUBLIC "-//W3C//DTD SVG 1.1//EN" "http://www.w3.org/Graphics/SVG/1.1/DTD/svg11.dtd">
<svg version="1.1" id="Capa_1" xmlns="http://www.w3.org/2000/svg" xmlns:xlink="http://www.w3.org/1999/xlink" x="0px" y="0px"
	 viewBox="0 0 203.82 203.82" style="enable-background:new 0 0 203.82 203.82;" xml:space="preserve">
<path d="M149.447,81.187c4.663-8.159,7.16-17.422,7.16-27.074c-0.001-14.612-5.691-28.35-16.024-38.684
	c-2.929-2.929-7.678-2.929-10.607,0c-2.93,2.929-2.93,7.677-0.001,10.607c7.501,7.5,11.632,17.472,11.632,28.078
	c0,4.985-0.924,9.826-2.67,14.341c-9.751-8.985-22.759-14.486-37.031-14.489c-14.275,0.003-27.285,5.508-37.036,14.497
	c-1.749-4.516-2.674-9.36-2.674-14.349c-0.001-10.605,4.129-20.576,11.629-28.075c2.929-2.929,2.929-7.678,0-10.606
	c-2.93-2.929-7.678-2.929-10.607,0c-10.332,10.332-16.022,24.07-16.021,38.682c0,9.651,2.497,18.914,7.161,27.073
	C24.354,81.374,0,105.834,0,135.883c0,4.142,3.358,7.5,7.5,7.5c4.143,0,7.5-3.358,7.5-7.5c0-19.801,14.57-36.261,33.551-39.227
	c-0.871,3.869-1.346,7.887-1.346,12.015c-0.002,14.613,5.687,28.351,16.018,38.684c6.343,6.344,13.973,10.929,22.298,13.53
	c-7.286,8.963-18.393,14.703-30.817,14.703c-4.143,0-7.5,3.358-7.5,7.5c0,4.142,3.357,7.5,7.5,7.5
	c20.104,0,37.699-10.908,47.207-27.109c9.508,16.201,27.101,27.109,47.203,27.109c4.143,0,7.5-3.358,7.5-7.5
	c0-4.142-3.357-7.5-7.5-7.5c-12.431,0-23.541-5.746-30.826-14.718c22.189-6.977,38.328-27.737,38.328-52.199
	c-0.001-4.128-0.477-8.146-1.348-12.014c18.982,2.966,33.553,19.425,33.553,39.226c0,4.142,3.357,7.5,7.5,7.5
	c4.143,0,7.5-3.358,7.5-7.5C203.82,105.83,179.459,81.367,149.447,81.187z M101.906,68.965c11.339,0.002,21.576,4.79,28.818,12.439
	c-0.248,0.262-0.491,0.528-0.748,0.785c-7.498,7.5-17.469,11.629-28.073,11.629c-10.605-0.001-20.577-4.131-28.077-11.632
	c-0.254-0.254-0.494-0.518-0.74-0.777C80.328,73.757,90.565,68.967,101.906,68.965z M73.83,136.749
	c-7.498-7.499-11.627-17.47-11.625-28.077c0-3.966,0.592-7.794,1.68-11.411c17.481,4.155,30.525,19.889,30.525,38.622
	c0,3.971-0.593,7.805-1.684,11.425C85.63,145.636,79.115,142.034,73.83,136.749z M111.089,147.294
	c-1.087-3.617-1.679-7.445-1.679-11.411c0-18.733,13.045-34.467,30.523-38.622c1.089,3.616,1.682,7.445,1.682,11.411
	C141.615,127.405,128.57,143.139,111.089,147.294z"/>
<g>
</g>
<g>
</g>
<g>
</g>
<g>
</g>
<g>
</g>
<g>
</g>
<g>
</g>
<g>
</g>
<g>
</g>
<g>
</g>
<g>
</g>
<g>
</g>
<g>
</g>
<g>
</g>
<g>
</g>
</svg>
