<?xml version="1.0" encoding="iso-8859-1"?>
<!-- Generator: Adobe Illustrator 18.0.0, SVG Export Plug-In . SVG Version: 6.00 Build 0)  -->
<!DOCTYPE svg PUBLIC "-//W3C//DTD SVG 1.1//EN" "http://www.w3.org/Graphics/SVG/1.1/DTD/svg11.dtd">
<svg version="1.1" id="Capa_1" xmlns="http://www.w3.org/2000/svg" xmlns:xlink="http://www.w3.org/1999/xlink" x="0px" y="0px"
	 viewBox="0 0 165.878 165.878" style="enable-background:new 0 0 165.878 165.878;" xml:space="preserve">
<g>
	<path d="M82.939,0C37.206,0,0,37.206,0,82.939c0,45.733,37.206,82.939,82.939,82.939s82.939-37.207,82.939-82.939
		C165.878,37.206,128.672,0,82.939,0z M82.939,150.878C45.478,150.878,15,120.4,15,82.939C15,45.477,45.478,15,82.939,15
		s67.939,30.477,67.939,67.939C150.878,120.4,120.4,150.878,82.939,150.878z"/>
	<circle cx="80.164" cy="43.023" r="13.382"/>
	<circle cx="47.124" cy="109.668" r="10.706"/>
	<path d="M115.407,92.509c-8.873,0-16.059,7.19-16.059,16.057c0,8.873,7.186,16.062,16.059,16.062
		c8.867,0,16.057-7.189,16.057-16.062C131.463,99.699,124.274,92.509,115.407,92.509z"/>
	<path d="M64.457,67.988L43.648,52.459c-3.32-2.477-8.019-1.794-10.497,1.525c-2.477,3.32-1.794,8.019,1.525,10.497L55.485,80.01
		c1.347,1.005,2.92,1.49,4.48,1.49c2.286,0,4.544-1.042,6.017-3.015C68.459,75.165,67.776,70.466,64.457,67.988z"/>
	<path d="M132.973,44.884c-2.704-3.139-7.439-3.491-10.578-0.787l-19.049,16.409c-3.138,2.704-3.491,7.439-0.788,10.578
		c1.483,1.722,3.579,2.605,5.686,2.605c1.733,0,3.475-0.598,4.892-1.818l19.049-16.409
		C135.323,52.758,135.676,48.023,132.973,44.884z"/>
	<path d="M82.672,97.865c-4.112-0.42-7.804,2.573-8.227,6.694l-2.641,25.695c-0.423,4.12,2.574,7.804,6.694,8.228
		c0.261,0.026,0.519,0.039,0.776,0.039c3.797,0,7.055-2.874,7.452-6.734l2.641-25.695C89.79,101.973,86.793,98.289,82.672,97.865z"
		/>
	<path d="M85.941,68.233c-5.914,0-10.708,4.793-10.708,10.705c0,5.916,4.794,10.707,10.708,10.707
		c5.912,0,10.704-4.791,10.704-10.707C96.645,73.026,91.853,68.233,85.941,68.233z"/>
</g>
<g>
</g>
<g>
</g>
<g>
</g>
<g>
</g>
<g>
</g>
<g>
</g>
<g>
</g>
<g>
</g>
<g>
</g>
<g>
</g>
<g>
</g>
<g>
</g>
<g>
</g>
<g>
</g>
<g>
</g>
</svg>
