<?xml version="1.0" encoding="iso-8859-1"?>
<!-- Generator: Adobe Illustrator 18.0.0, SVG Export Plug-In . SVG Version: 6.00 Build 0)  -->
<!DOCTYPE svg PUBLIC "-//W3C//DTD SVG 1.1//EN" "http://www.w3.org/Graphics/SVG/1.1/DTD/svg11.dtd">
<svg version="1.1" id="Capa_1" xmlns="http://www.w3.org/2000/svg" xmlns:xlink="http://www.w3.org/1999/xlink" x="0px" y="0px"
	 viewBox="0 0 165.878 165.878" style="enable-background:new 0 0 165.878 165.878;" xml:space="preserve">
<g>
	<path d="M82.938,0C37.206,0,0,37.206,0,82.939c0,45.733,37.206,82.939,82.938,82.939c45.733,0,82.94-37.207,82.94-82.939
		C165.878,37.206,128.671,0,82.938,0z M82.938,150.878C45.477,150.878,15,120.401,15,82.939C15,45.477,45.477,15,82.938,15
		c37.462,0,67.94,30.477,67.94,67.939C150.878,120.401,120.401,150.878,82.938,150.878z"/>
	<path d="M66.288,66.414L45.479,50.885c-3.319-2.477-8.018-1.795-10.497,1.525c-2.478,3.32-1.794,8.019,1.525,10.497l20.809,15.529
		c1.347,1.005,2.92,1.49,4.48,1.49c2.286,0,4.544-1.042,6.017-3.015C70.29,73.591,69.607,68.892,66.288,66.414z"/>
	<path d="M60.721,91.464l-25.694,3.732c-4.099,0.595-6.94,4.401-6.344,8.5c0.542,3.733,3.747,6.423,7.413,6.423
		c0.359,0,0.722-0.026,1.087-0.079l25.694-3.732c4.099-0.595,6.939-4.401,6.344-8.5C68.626,93.709,64.823,90.869,60.721,91.464z"/>
	<path d="M106.078,68.115c1.595,0,3.202-0.507,4.564-1.554l20.049-15.41c3.284-2.524,3.9-7.233,1.376-10.517
		c-2.522-3.284-7.232-3.901-10.517-1.375l-20.049,15.41c-3.284,2.524-3.9,7.233-1.376,10.517
		C101.602,67.107,103.828,68.115,106.078,68.115z"/>
	<path d="M84.503,101.29c-4.117-0.416-7.804,2.573-8.228,6.694l-2.641,25.695c-0.423,4.12,2.574,7.804,6.694,8.228
		c0.261,0.026,0.519,0.039,0.776,0.039c3.797,0,7.055-2.874,7.451-6.734l2.641-25.695C91.621,105.398,88.624,101.714,84.503,101.29z
		"/>
	<path d="M128.388,109.603l-22.072-4.867c-4.045-0.89-8.047,1.664-8.94,5.709c-0.892,4.045,1.664,8.047,5.709,8.939l22.072,4.867
		c0.544,0.12,1.087,0.177,1.622,0.177c3.443,0,6.545-2.386,7.317-5.886C134.989,114.497,132.433,110.495,128.388,109.603z"/>
	<path d="M77.328,56.201c1.482,1.822,3.643,2.767,5.822,2.767c1.664,0,3.338-0.55,4.729-1.682c3.213-2.614,3.699-7.338,1.085-10.551
		L72.662,26.698c-2.614-3.212-7.337-3.699-10.551-1.084c-3.213,2.614-3.698,7.338-1.084,10.551L77.328,56.201z"/>
	<path d="M127.244,85.365c0-4.142-3.357-7.5-7.5-7.5H92.769c-4.143,0-7.5,3.358-7.5,7.5s3.357,7.5,7.5,7.5h26.975
		C123.886,92.865,127.244,89.507,127.244,85.365z"/>
</g>
<g>
</g>
<g>
</g>
<g>
</g>
<g>
</g>
<g>
</g>
<g>
</g>
<g>
</g>
<g>
</g>
<g>
</g>
<g>
</g>
<g>
</g>
<g>
</g>
<g>
</g>
<g>
</g>
<g>
</g>
</svg>
