<?xml version="1.0" encoding="iso-8859-1"?>
<!-- Generator: Adobe Illustrator 18.0.0, SVG Export Plug-In . SVG Version: 6.00 Build 0)  -->
<!DOCTYPE svg PUBLIC "-//W3C//DTD SVG 1.1//EN" "http://www.w3.org/Graphics/SVG/1.1/DTD/svg11.dtd">
<svg version="1.1" id="Capa_1" xmlns="http://www.w3.org/2000/svg" xmlns:xlink="http://www.w3.org/1999/xlink" x="0px" y="0px"
	 viewBox="0 0 165.878 165.878" style="enable-background:new 0 0 165.878 165.878;" xml:space="preserve">
<g>
	<path style="fill:#2eb872" d="M82.938,0C37.207,0,0.001,37.206,0.001,82.939c0,45.733,37.206,82.939,82.938,82.939c45.733,0,82.939-37.207,82.939-82.939
		C165.878,37.206,128.671,0,82.938,0z M82.938,150.878C45.477,150.878,15,120.4,15,82.939C15,45.477,45.477,15,82.938,15
		c37.462,0,67.939,30.477,67.939,67.939C150.878,120.4,120.4,150.878,82.938,150.878z"/>
	<path d="M110.649,74.837c-10.51,0-19.447,6.646-22.676,16.163c-9.517,3.229-16.162,12.166-16.162,22.674
		c0,13.214,10.749,23.964,23.961,23.964c10.51,0,19.447-6.645,22.676-16.162c9.518-3.228,16.164-12.166,16.164-22.675
		C134.612,85.587,123.862,74.837,110.649,74.837z M111.482,107.721c-3.604,0.329-6.46,3.184-6.788,6.789
		c-0.416,4.558-4.334,8.128-8.922,8.128c-4.941,0-8.961-4.021-8.961-8.964c0-4.663,3.494-8.498,8.129-8.92
		c3.604-0.329,6.459-3.185,6.787-6.789c0.423-4.634,4.258-8.128,8.922-8.128c4.942,0,8.963,4.021,8.963,8.964
		C119.612,103.388,116.041,107.306,111.482,107.721z"/>
	<circle cx="62.823" cy="93.101" r="10.002"/>
	<circle cx="35.599" cy="84.962" r="10.001"/>
	<path d="M68.424,76.162c3.666,0,7.267-0.845,10.52-2.432c3.254,1.588,6.855,2.433,10.521,2.433c0.001,0,0.001,0,0.001,0
		c6.398,0,12.414-2.491,16.939-7.016c9.343-9.344,9.344-24.546,0.001-33.889c-4.526-4.524-10.543-7.016-16.941-7.016
		c-3.666,0-7.267,0.845-10.52,2.432c-3.254-1.588-6.855-2.433-10.522-2.433c-6.399,0-12.415,2.493-16.941,7.018
		C42.14,44.6,42.14,59.802,51.483,69.146C56.008,73.67,62.025,76.162,68.424,76.162z M62.089,45.865
		c1.692-1.692,3.941-2.625,6.334-2.625c2.093,0,4.125,0.733,5.724,2.063c2.781,2.316,6.817,2.315,9.599,0
		c1.597-1.33,3.628-2.062,5.72-2.062c2.393,0,4.644,0.932,6.335,2.624c3.494,3.494,3.493,9.18-0.001,12.675
		c-1.691,1.691-3.94,2.622-6.332,2.622h-0.001c-2.093,0-4.126-0.733-5.724-2.063c-1.391-1.158-3.095-1.736-4.799-1.736
		s-3.409,0.579-4.8,1.737c-1.597,1.33-3.628,2.062-5.72,2.062c-2.394,0-4.644-0.932-6.335-2.623
		C58.595,55.045,58.595,49.359,62.089,45.865z"/>
	<circle cx="48.047" cy="117.438" r="10.001"/>
	<circle cx="129.28" cy="60.74" r="10.001"/>
</g>
<g>
</g>
<g>
</g>
<g>
</g>
<g>
</g>
<g>
</g>
<g>
</g>
<g>
</g>
<g>
</g>
<g>
</g>
<g>
</g>
<g>
</g>
<g>
</g>
<g>
</g>
<g>
</g>
<g>
</g>
</svg>
