<?xml version="1.0" encoding="iso-8859-1"?>
<!-- Generator: Adobe Illustrator 18.0.0, SVG Export Plug-In . SVG Version: 6.00 Build 0)  -->
<!DOCTYPE svg PUBLIC "-//W3C//DTD SVG 1.1//EN" "http://www.w3.org/Graphics/SVG/1.1/DTD/svg11.dtd">
<svg version="1.1" id="Capa_1" xmlns="http://www.w3.org/2000/svg" xmlns:xlink="http://www.w3.org/1999/xlink" x="0px" y="0px"
	 viewBox="0 0 222.299 222.299" style="enable-background:new 0 0 222.299 222.299;" xml:space="preserve">
<g>
	<path d="M191.529,103.161c-9.052-3.752-15.765-0.971-20.666,1.059c-1.929,0.799-3.349,1.353-4.64,1.603
		c-0.4-11.056-2.322-21.705-5.602-31.409c4.261-3.616,6.116-8.055,7.571-11.568c1.73-4.177,2.559-5.925,5.746-7.245
		c3.827-1.585,5.644-5.972,4.059-9.799c-1.585-3.826-5.972-5.643-9.799-4.059c-9.053,3.75-11.833,10.462-13.864,15.362
		c-0.246,0.592-0.472,1.131-0.691,1.632c-0.808-1.418-1.638-2.813-2.518-4.157c-8.412-12.857-19.273-21.048-31.208-23.742
		c-0.111-4.533-1.646-8.253-2.899-11.28c-1.73-4.177-2.379-5.999-1.06-9.185c1.585-3.827-0.231-8.214-4.058-9.799
		c-3.824-1.586-8.214,0.232-9.799,4.058c-3.751,9.053-0.971,15.765,1.059,20.666c0.888,2.145,1.485,3.667,1.683,5.073
		C91.942,32.441,80.159,40.844,71.172,54.58c-0.445,0.681-0.871,1.382-1.298,2.082c-2.373-1.561-4.787-2.567-6.872-3.431
		c-4.176-1.73-5.923-2.56-7.242-5.744c-1.585-3.827-5.973-5.643-9.799-4.059c-3.827,1.585-5.644,5.973-4.059,9.799
		c3.749,9.051,10.46,11.831,15.36,13.861c2.888,1.197,4.614,1.963,5.841,3.375c-3.659,9.45-5.965,19.93-6.775,30.888
		c-4.239,0.233-7.751,1.674-10.632,2.868c-4.177,1.729-6,2.378-9.184,1.06c-3.829-1.586-8.214,0.232-9.799,4.059
		c-1.585,3.827,0.232,8.214,4.059,9.799c3.249,1.346,6.197,1.85,8.867,1.85c4.768,0,8.655-1.609,11.796-2.91
		c1.975-0.818,3.418-1.383,4.733-1.623c0.538,10.321,2.399,20.258,5.461,29.366c-4.284,3.621-6.145,8.073-7.604,11.594
		c-1.731,4.178-2.56,5.926-5.747,7.246c-3.827,1.585-5.644,5.973-4.058,9.799c1.196,2.888,3.988,4.631,6.932,4.631
		c0.957,0,1.929-0.184,2.868-0.573c9.052-3.75,11.833-10.461,13.864-15.361c0.248-0.599,0.477-1.142,0.697-1.646
		c0.831,1.465,1.687,2.905,2.594,4.292c7.933,12.123,18.043,20.091,29.177,23.222c-0.513,5.657,1.339,10.167,2.811,13.719
		c1.73,4.177,2.379,6,1.06,9.184c-1.585,3.827,0.232,8.214,4.059,9.799c0.939,0.389,1.911,0.573,2.867,0.573
		c2.943,0,5.736-1.744,6.932-4.632c3.749-9.051,0.97-15.763-1.06-20.664c-1.238-2.99-1.907-4.776-1.712-6.716
		c13.543-1.421,25.97-9.762,35.405-23.882c2.487,1.699,5.037,2.761,7.227,3.667c4.178,1.731,5.926,2.56,7.245,5.747
		c1.196,2.889,3.989,4.633,6.933,4.633c0.956,0,1.928-0.184,2.866-0.572c3.827-1.585,5.645-5.972,4.061-9.799
		c-3.749-9.055-10.462-11.835-15.363-13.866c-2.801-1.16-4.507-1.918-5.727-3.251c4.15-9.683,6.83-20.568,7.865-32.017
		c4.307-0.207,7.872-1.662,10.787-2.869c4.176-1.73,5.998-2.379,9.185-1.06c3.825,1.584,8.214-0.231,9.799-4.058
		C197.173,109.134,195.356,104.747,191.529,103.161z M111.149,175.529c-21.769,0-40.16-29.921-40.16-65.339
		c0-35.405,18.378-65.317,40.137-65.338c0.007,0,0.013,0.001,0.02,0.001c0.006,0,0.012-0.001,0.018-0.001
		c21.762,0.014,40.145,29.929,40.145,65.338C151.309,145.608,132.918,175.529,111.149,175.529z"/>
	<circle cx="107.544" cy="78.566" r="10.055"/>
	<circle cx="115.744" cy="108.601" r="8.044"/>
	<path d="M112.745,127.737c-6.666,0-12.064,5.4-12.064,12.064c0,6.666,5.398,12.066,12.064,12.066c6.662,0,12.064-5.4,12.064-12.066
		C124.809,133.138,119.407,127.737,112.745,127.737z"/>
</g>
<g>
</g>
<g>
</g>
<g>
</g>
<g>
</g>
<g>
</g>
<g>
</g>
<g>
</g>
<g>
</g>
<g>
</g>
<g>
</g>
<g>
</g>
<g>
</g>
<g>
</g>
<g>
</g>
<g>
</g>
</svg>
