<?xml version="1.0" encoding="iso-8859-1"?>
<!-- Generator: Adobe Illustrator 18.0.0, SVG Export Plug-In . SVG Version: 6.00 Build 0)  -->
<!DOCTYPE svg PUBLIC "-//W3C//DTD SVG 1.1//EN" "http://www.w3.org/Graphics/SVG/1.1/DTD/svg11.dtd">
<svg version="1.1" id="Capa_1" xmlns="http://www.w3.org/2000/svg" xmlns:xlink="http://www.w3.org/1999/xlink" x="0px" y="0px"
	 viewBox="0 0 172.365 172.365" style="enable-background:new 0 0 172.365 172.365;" xml:space="preserve">
<g>
	<path d="M110.668,0.001c-15.488,0-30.297,5.764-41.7,16.231c-9.84,9.033-16.42,20.883-18.893,33.843
		c-12.96,2.472-24.811,9.052-33.844,18.892C5.765,80.369,0,95.179,0,110.667c0,34.02,27.677,61.697,61.697,61.697
		c15.488,0,30.297-5.765,41.7-16.231c9.84-9.033,16.419-20.883,18.891-33.843c12.961-2.472,24.811-9.051,33.844-18.891
		c10.468-11.402,16.233-26.212,16.233-41.7C172.365,27.678,144.688,0.001,110.668,0.001z M114.974,108.189
		c-3.603,0.329-6.458,3.184-6.787,6.787c-2.207,24.166-22.193,42.389-46.49,42.389C35.948,157.365,15,136.417,15,110.667
		c0-24.297,18.224-44.285,42.389-46.492c3.603-0.329,6.458-3.183,6.787-6.786c2.209-24.166,22.196-42.389,46.492-42.389
		c25.749,0,46.697,20.949,46.697,46.698C157.365,85.996,139.141,105.982,114.974,108.189z"/>
	<path d="M61.697,78.473c-17.751,0-32.193,14.442-32.193,32.194c0,17.751,14.442,32.193,32.193,32.193
		c17.751,0,32.193-14.442,32.193-32.193C93.891,92.915,79.449,78.473,61.697,78.473z M61.697,127.861
		c-9.48,0-17.193-7.713-17.193-17.193c0-9.481,7.713-17.194,17.193-17.194c9.48,0,17.193,7.713,17.193,17.194
		C78.891,120.148,71.178,127.861,61.697,127.861z"/>
	<path d="M110.668,29.505c-17.752,0-32.193,14.442-32.193,32.193s14.442,32.193,32.193,32.193c17.751,0,32.193-14.442,32.193-32.193
		S128.419,29.505,110.668,29.505z M110.668,78.892c-9.48,0-17.193-7.713-17.193-17.193s7.713-17.193,17.193-17.193
		c9.48,0,17.193,7.713,17.193,17.193S120.148,78.892,110.668,78.892z"/>
</g>
<g>
</g>
<g>
</g>
<g>
</g>
<g>
</g>
<g>
</g>
<g>
</g>
<g>
</g>
<g>
</g>
<g>
</g>
<g>
</g>
<g>
</g>
<g>
</g>
<g>
</g>
<g>
</g>
<g>
</g>
</svg>
