<?xml version="1.0" encoding="iso-8859-1"?>
<!-- Generator: Adobe Illustrator 18.0.0, SVG Export Plug-In . SVG Version: 6.00 Build 0)  -->
<!DOCTYPE svg PUBLIC "-//W3C//DTD SVG 1.1//EN" "http://www.w3.org/Graphics/SVG/1.1/DTD/svg11.dtd">
<svg version="1.1" id="Capa_1" xmlns="http://www.w3.org/2000/svg" xmlns:xlink="http://www.w3.org/1999/xlink" x="0px" y="0px"
	 viewBox="0 0 202.328 202.328" style="enable-background:new 0 0 202.328 202.328;" xml:space="preserve">
<g>
	<path d="M195.398,93.685l-40.979-3.127c-0.842-4.233-2.183-8.286-3.948-12.105l31.328-26.63c2.987-2.539,3.515-6.951,1.21-10.123
		c-2.305-3.172-6.664-4.034-10.001-1.977l-35.023,21.576c-3.112-2.877-6.563-5.39-10.281-7.483l9.694-39.963
		c0.924-3.81-1.242-7.689-4.972-8.901c-3.729-1.212-7.762,0.653-9.253,4.279l-15.643,38.017c-2.09-0.245-4.212-0.386-6.367-0.386
		c-2.155,0-4.276,0.141-6.367,0.386L79.156,9.232c-1.491-3.625-5.523-5.492-9.253-4.279c-3.729,1.211-5.896,5.091-4.972,8.901
		l9.693,39.962c-3.719,2.093-7.17,4.606-10.282,7.484L29.323,39.723c-3.341-2.057-7.699-1.195-10.002,1.977
		c-2.305,3.172-1.777,7.584,1.21,10.123l31.327,26.628c-1.767,3.82-3.108,7.873-3.95,12.107L6.93,93.685
		C3.02,93.983,0,97.242,0,101.163s3.02,7.18,6.93,7.479l40.979,3.127c0.842,4.234,2.183,8.288,3.949,12.107l-31.326,26.628
		c-2.987,2.539-3.515,6.951-1.21,10.122c1.46,2.01,3.745,3.092,6.073,3.092c1.346,0,2.705-0.362,3.928-1.115l35.022-21.575
		c3.112,2.877,6.563,5.391,10.281,7.483l-9.693,39.964c-0.924,3.811,1.242,7.689,4.972,8.901c0.768,0.249,1.549,0.369,2.317,0.369
		c2.965,0,5.751-1.769,6.936-4.647L94.8,155.079c2.089,0.245,4.21,0.385,6.364,0.385c2.155,0,4.277-0.141,6.368-0.386l15.642,38.019
		c1.185,2.879,3.971,4.648,6.936,4.648c0.769,0,1.55-0.119,2.317-0.369c3.729-1.211,5.895-5.09,4.972-8.901l-9.694-39.964
		c3.72-2.093,7.169-4.606,10.282-7.483l35.021,21.576c1.223,0.753,2.582,1.115,3.928,1.115c2.328,0,4.613-1.083,6.073-3.092
		c2.305-3.172,1.777-7.583-1.21-10.122l-31.328-26.629c1.767-3.819,3.107-7.872,3.949-12.106l40.979-3.127
		c3.91-0.299,6.93-3.558,6.93-7.479S199.309,93.983,195.398,93.685z M101.164,140.464c-21.672,0-39.303-17.629-39.303-39.299
		c0-1.025,0.052-2.038,0.129-3.044c0.001-0.002,0.001-0.004,0.001-0.006c1.563-20.25,18.528-36.253,39.173-36.253
		c21.672,0,39.303,17.631,39.303,39.303C140.467,122.835,122.836,140.464,101.164,140.464z"/>
	<circle cx="101.166" cy="85.851" r="10.055"/>
	<circle cx="86.258" cy="109.477" r="8.044"/>
	<circle cx="116.072" cy="109.477" r="12.065"/>
</g>
<g>
</g>
<g>
</g>
<g>
</g>
<g>
</g>
<g>
</g>
<g>
</g>
<g>
</g>
<g>
</g>
<g>
</g>
<g>
</g>
<g>
</g>
<g>
</g>
<g>
</g>
<g>
</g>
<g>
</g>
</svg>
