<?xml version="1.0" encoding="iso-8859-1"?>
<!-- Generator: Adobe Illustrator 18.0.0, SVG Export Plug-In . SVG Version: 6.00 Build 0)  -->
<!DOCTYPE svg PUBLIC "-//W3C//DTD SVG 1.1//EN" "http://www.w3.org/Graphics/SVG/1.1/DTD/svg11.dtd">
<svg version="1.1" id="Capa_1" xmlns="http://www.w3.org/2000/svg" xmlns:xlink="http://www.w3.org/1999/xlink" x="0px" y="0px"
	 viewBox="0 0 222.295 222.295" style="enable-background:new 0 0 222.295 222.295;" xml:space="preserve">
<g>
	<path d="M174.609,118.648c4.143,0,7.5-3.358,7.5-7.5c0-4.142-3.357-7.5-7.5-7.5h-15.845V78.463h15.845c4.143,0,7.5-3.358,7.5-7.5
		c0-4.142-3.357-7.5-7.5-7.5h-16.44c-1.199-7.543-4.179-14.497-8.488-20.427l11.645-11.645c2.929-2.929,2.929-7.678-0.001-10.606
		c-2.928-2.93-7.677-2.929-10.606,0L139.073,32.43c-5.93-4.309-12.883-7.289-20.426-8.488V7.5c0-4.142-3.357-7.5-7.5-7.5
		s-7.5,3.358-7.5,7.5v16.441c-7.543,1.199-14.496,4.179-20.426,8.488L71.576,20.785c-2.93-2.929-7.678-2.929-10.607,0
		c-2.929,2.929-2.929,7.678,0,10.606l11.646,11.646c-4.31,5.93-7.289,12.883-8.488,20.426h-16.44c-4.143,0-7.5,3.358-7.5,7.5
		c0,4.142,3.357,7.5,7.5,7.5H63.53v25.186H47.686c-4.143,0-7.5,3.358-7.5,7.5c0,4.142,3.357,7.5,7.5,7.5H63.53v25.184H47.686
		c-4.143,0-7.5,3.358-7.5,7.5c0,4.142,3.357,7.5,7.5,7.5h16.44c1.199,7.543,4.179,14.497,8.488,20.427L60.97,190.904
		c-2.929,2.929-2.929,7.678,0.001,10.607c1.464,1.465,3.384,2.197,5.303,2.197c1.919,0,3.839-0.733,5.304-2.197l11.645-11.645
		c5.93,4.31,12.883,7.29,20.426,8.488v16.441c0,4.142,3.357,7.5,7.5,7.5s7.5-3.358,7.5-7.5v-16.441
		c7.543-1.199,14.496-4.179,20.426-8.488l11.645,11.645c1.465,1.465,3.384,2.197,5.304,2.197c1.919,0,3.839-0.733,5.303-2.197
		c2.93-2.929,2.93-7.677,0.001-10.607l-11.645-11.645c4.31-5.93,7.289-12.884,8.488-20.427h16.44c4.143,0,7.5-3.358,7.5-7.5
		c0-4.142-3.357-7.5-7.5-7.5h-15.845v-25.184H174.609z M111.147,183.949c-17.985,0-32.617-14.632-32.617-32.617V70.963
		c0-17.985,14.632-32.617,32.617-32.617s32.617,14.632,32.617,32.617v80.369C143.765,169.317,129.133,183.949,111.147,183.949z"/>
	<circle cx="111.147" cy="72.303" r="8.848"/>
	<circle cx="98.05" cy="94.99" r="8.848"/>
	<circle cx="124.246" cy="94.99" r="8.848"/>
	<circle cx="111.147" cy="149.99" r="8.848"/>
	<circle cx="124.244" cy="127.303" r="8.848"/>
	<circle cx="98.048" cy="127.305" r="8.847"/>
</g>
<g>
</g>
<g>
</g>
<g>
</g>
<g>
</g>
<g>
</g>
<g>
</g>
<g>
</g>
<g>
</g>
<g>
</g>
<g>
</g>
<g>
</g>
<g>
</g>
<g>
</g>
<g>
</g>
<g>
</g>
</svg>
