<?xml version="1.0" encoding="iso-8859-1"?>
<!-- Generator: Adobe Illustrator 18.0.0, SVG Export Plug-In . SVG Version: 6.00 Build 0)  -->
<!DOCTYPE svg PUBLIC "-//W3C//DTD SVG 1.1//EN" "http://www.w3.org/Graphics/SVG/1.1/DTD/svg11.dtd">
<svg version="1.1" id="Capa_1" xmlns="http://www.w3.org/2000/svg" xmlns:xlink="http://www.w3.org/1999/xlink" x="0px" y="0px"
	 viewBox="0 0 195.74 195.74" style="enable-background:new 0 0 195.74 195.74;" xml:space="preserve">
<g>
	<path d="M193.544,134.967l-49.227-49.227c-1.407-1.407-3.314-2.197-5.304-2.197h-34.061c2.308-5.251,3.531-10.969,3.531-16.878
		c0-11.212-4.366-21.753-12.294-29.681L71.659,12.453c-7.93-7.93-18.473-12.297-29.686-12.297s-21.753,4.367-29.68,12.295
		C4.365,20.379-0.001,30.92,0,42.134c0.001,11.212,4.367,21.753,12.296,29.682l24.531,24.531
		c7.929,7.928,18.47,12.294,29.682,12.294h0.001c5.908,0,11.625-1.224,16.877-3.531l-0.001,33.434c0,1.989,0.79,3.897,2.196,5.303
		l49.541,49.54c1.465,1.464,3.385,2.197,5.304,2.197c1.919,0,3.839-0.732,5.304-2.197c2.929-2.929,2.929-7.678,0-10.606
		l-47.345-47.343v-26.287l60.486,60.487c1.465,1.465,3.384,2.197,5.304,2.197c1.919,0,3.839-0.732,5.303-2.197
		c2.93-2.929,2.93-7.677,0.001-10.607l-60.486-60.488h26.914l47.029,47.03c1.465,1.464,3.385,2.197,5.304,2.197
		c1.919,0,3.839-0.732,5.304-2.197C196.473,142.645,196.473,137.896,193.544,134.967z M66.509,93.641
		c-7.205,0-13.979-2.806-19.074-7.901L22.903,61.209C17.807,56.114,15,49.338,15,42.132c-0.001-7.206,2.805-13.979,7.9-19.075
		c5.094-5.095,11.868-7.901,19.073-7.901c7.206,0,13.982,2.807,19.078,7.903l24.531,24.531c5.095,5.095,7.901,11.869,7.901,19.075
		c0,7.206-2.807,13.98-7.901,19.075C80.488,90.835,73.714,93.641,66.509,93.641z"/>
	<path d="M62.65,50.364c-3.711-3.711-9.73-3.709-13.442,0.004c-3.711,3.711-3.712,9.729-0.001,13.439
		c3.714,3.715,9.731,3.713,13.442,0.002C66.362,60.097,66.364,54.079,62.65,50.364z"/>
	<circle cx="71.718" cy="72.874" r="7.604"/>
	<path d="M45.52,30.547c-4.457-4.457-11.676-4.454-16.13-0.001c-4.456,4.456-4.456,11.676,0,16.131
		c4.455,4.454,11.673,4.454,16.129-0.002C49.973,42.222,49.975,35.003,45.52,30.547z"/>
</g>
<g>
</g>
<g>
</g>
<g>
</g>
<g>
</g>
<g>
</g>
<g>
</g>
<g>
</g>
<g>
</g>
<g>
</g>
<g>
</g>
<g>
</g>
<g>
</g>
<g>
</g>
<g>
</g>
<g>
</g>
</svg>
