<?xml version="1.0" encoding="iso-8859-1"?>
<!-- Generator: Adobe Illustrator 18.0.0, SVG Export Plug-In . SVG Version: 6.00 Build 0)  -->
<!DOCTYPE svg PUBLIC "-//W3C//DTD SVG 1.1//EN" "http://www.w3.org/Graphics/SVG/1.1/DTD/svg11.dtd">
<svg version="1.1" id="Capa_1" xmlns="http://www.w3.org/2000/svg" xmlns:xlink="http://www.w3.org/1999/xlink" x="0px" y="0px"
	 viewBox="0 0 222.612 222.612" style="enable-background:new 0 0 222.612 222.612;" xml:space="preserve">
<g>
	<path d="M50.179,45.594c1.14,0.62,2.368,0.915,3.58,0.915c2.658,0,5.233-1.416,6.594-3.915c3.551-6.521,8.345-12.119,14.248-16.637
		c3.289-2.517,3.915-7.225,1.397-10.514c-2.517-3.288-7.224-3.915-10.515-1.397C57.901,19.85,51.741,27.041,47.179,35.42
		C45.198,39.058,46.541,43.613,50.179,45.594z"/>
	<path d="M64.265,142.623c0.135,0.007,0.268,0.01,0.401,0.01c3.961,0,7.271-3.104,7.482-7.105c0.063-1.188,0.095-2.389,0.095-3.569
		c0-8.325-1.509-16.478-4.485-24.231c-1.484-3.866-5.82-5.8-9.689-4.314c-3.867,1.485-5.799,5.823-4.314,9.69
		c2.315,6.031,3.489,12.375,3.489,18.855c0,0.918-0.024,1.853-0.073,2.78C56.951,138.875,60.128,142.405,64.265,142.623z"/>
	<path d="M92.608,16.695c0.585,0,1.18-0.069,1.774-0.213C98.436,15.498,102.615,15,106.8,15c0.002,0,0.004,0,0.007,0
		c3.167,0,6.357,0.288,9.482,0.854c4.077,0.743,7.979-1.965,8.719-6.041c0.739-4.076-1.966-7.979-6.041-8.718
		C114.96,0.368,110.869,0,106.808,0c-0.003,0-0.006,0-0.009,0c-5.374,0-10.741,0.641-15.953,1.904
		c-4.025,0.976-6.497,5.031-5.521,9.056C86.157,14.392,89.226,16.695,92.608,16.695z"/>
	<path d="M136.599,24.128c6.125,4.148,11.236,9.462,15.189,15.792l0.07,0.113c1.422,2.281,3.868,3.533,6.371,3.533
		c1.355,0,2.727-0.367,3.961-1.136c3.515-2.191,4.588-6.817,2.396-10.333l-0.073-0.118c-5.071-8.122-11.634-14.942-19.504-20.271
		c-3.428-2.322-8.092-1.425-10.415,2.004C132.272,17.143,133.169,21.806,136.599,24.128z"/>
	<path d="M162.208,61.249c2.695,7.393,4.617,15.093,5.714,22.887c0.527,3.747,3.738,6.456,7.417,6.456
		c0.348,0,0.7-0.024,1.055-0.074c4.102-0.577,6.959-4.37,6.382-8.472c-1.242-8.832-3.421-17.557-6.476-25.935
		c-1.419-3.891-5.725-5.898-9.615-4.478C162.793,53.052,160.789,57.357,162.208,61.249z"/>
	<path d="M166.074,149.751c-3.667-1.928-8.202-0.516-10.128,3.15c-3.666,6.976-8.073,13.578-13.098,19.624
		c-2.647,3.186-2.212,7.914,0.974,10.561c1.401,1.165,3.101,1.732,4.79,1.732c2.152,0,4.288-0.921,5.771-2.706
		c5.694-6.851,10.688-14.331,14.84-22.234C171.152,156.213,169.74,151.679,166.074,149.751z"/>
	<path d="M49.712,95.31c0.817,0,1.649-0.135,2.465-0.419c3.912-1.361,5.979-5.636,4.618-9.548
		c-1.937-5.568-2.919-11.389-2.919-17.303c0-1.47,0.063-2.961,0.185-4.435c0.346-4.127-2.721-7.754-6.848-8.1
		c-4.133-0.339-7.754,2.72-8.1,6.849c-0.158,1.887-0.238,3.8-0.238,5.685c0,7.596,1.263,15.075,3.753,22.232
		C43.706,93.369,46.609,95.31,49.712,95.31z"/>
	<path d="M85.738,207.62c-1.673-0.077-3.355-0.309-5.001-0.689c-4.843-1.121-9.293-3.513-12.868-6.917
		c-2.997-2.856-7.745-2.741-10.604,0.259c-2.856,3-2.74,7.747,0.26,10.604c5.517,5.254,12.374,8.943,19.832,10.669
		c2.528,0.585,5.117,0.941,7.695,1.059c0.117,0.005,0.232,0.008,0.349,0.008c3.984,0,7.303-3.136,7.486-7.157
		C93.076,211.317,89.875,207.81,85.738,207.62z"/>
	<path d="M59.349,182.544c-0.084-0.872-0.127-1.759-0.127-2.637c0-2.1,0.242-4.214,0.717-6.269c0.426-1.682,3.312-8.006,4.151-9.4
		c0.147-0.223,0.283-0.455,0.406-0.692l0.431-0.839c1.869-3.697,0.388-8.208-3.31-10.077c-3.697-1.87-8.208-0.387-10.077,3.309
		l-0.248,0.485c-1.688,2.825-5.222,10.602-5.965,13.825c-0.733,3.176-1.105,6.426-1.105,9.66c0,1.358,0.066,2.732,0.197,4.082
		c0.375,3.877,3.64,6.778,7.456,6.778c0.241,0,0.485-0.012,0.731-0.035C56.73,190.333,59.748,186.667,59.349,182.544z"/>
	<path d="M176.751,100.754c-4.123-0.276-7.714,2.834-7.998,6.967c-0.54,7.85-1.904,15.675-4.053,23.257
		c-1.13,3.985,1.186,8.131,5.171,9.261c0.684,0.194,1.372,0.286,2.049,0.286c3.27,0,6.276-2.155,7.212-5.457
		c2.432-8.578,3.975-17.433,4.586-26.316C184.002,104.619,180.883,101.039,176.751,100.754z"/>
	<path d="M125.949,188.991c-3.273,2.582-6.739,5.019-10.303,7.244c-3.114,1.945-6.359,3.761-9.647,5.396
		c-3.708,1.845-5.219,6.347-3.374,10.055c1.312,2.636,3.964,4.161,6.721,4.161c1.122,0,2.262-0.253,3.335-0.787
		c3.719-1.85,7.391-3.904,10.911-6.104c4.025-2.513,7.944-5.269,11.646-8.189c3.253-2.565,3.81-7.281,1.244-10.534
		C133.916,186.983,129.199,186.426,125.949,188.991z"/>
	<circle cx="120.875" cy="109.301" r="10.055"/>
	<circle cx="112.832" cy="143.021" r="8.044"/>
	<circle cx="108.811" cy="71.396" r="12.065"/>
	<path d="M65.034,56.439c-2.586,11.184-0.663,22.703,5.414,32.435c14.583,23.344,15.71,53.028,2.942,77.469
		c-0.047,0.09-0.093,0.182-0.136,0.274c-2.746,5.823-8.46,17.94,0.692,27.001c3.895,3.856,9.003,5.894,14.771,5.894
		c25.393,0,58.922-38.697,67.69-78.121c6.041-27.161,1.404-54.873-13.056-78.03c-7.906-12.663-21.554-20.222-36.509-20.222
		c-8.009,0-15.858,2.258-22.701,6.531C74.407,35.749,67.62,45.256,65.034,56.439z M79.65,59.818
		c1.683-7.28,6.101-13.469,12.44-17.426c4.457-2.783,9.559-4.254,14.756-4.254c9.746,0,18.638,4.922,23.786,13.167
		c12.362,19.799,16.317,43.533,11.136,66.829c-3.681,16.547-12.559,33.786-24.358,47.296
		c-12.302,14.085-23.144,19.081-28.689,19.081c-2.348,0-3.487-0.831-4.219-1.554c-0.833-0.825-1.133-2.588,2.259-9.81
		c15.144-29.108,13.772-64.429-3.588-92.22C79.216,74.595,77.966,67.099,79.65,59.818z"/>
</g>
<g>
</g>
<g>
</g>
<g>
</g>
<g>
</g>
<g>
</g>
<g>
</g>
<g>
</g>
<g>
</g>
<g>
</g>
<g>
</g>
<g>
</g>
<g>
</g>
<g>
</g>
<g>
</g>
<g>
</g>
</svg>
